<svg width="158" height="65" viewBox="0 0 158 65" fill="none" xmlns="http://www.w3.org/2000/svg">
<path d="M147.293 46.643L144.374 47.4764L144.431 47.7953C144.696 49.2808 144.427 50.8121 143.673 52.1192V52.1192L146.336 55.8092C147.428 57.3226 147.272 59.4027 145.965 60.7352L145.816 60.8868C145.63 61.0764 145.308 60.9447 145.308 60.6792V60.6792C145.308 59.0418 143.981 57.7145 142.343 57.7145H142.039V57.7145C138.674 57.7145 135.739 55.4306 134.912 52.1692L134.567 50.8097L132.232 53.5478L129.196 54.3811M146.125 43.1906L146.282 44.147C146.612 46.1692 148.109 47.8035 150.095 48.3097V48.3097V48.3097C151.311 47.4574 152.759 47.0002 154.244 47.0002H154.363C154.47 47.0002 154.572 46.9547 154.645 46.8751L156.219 45.1361C156.791 44.504 156.631 43.5048 155.89 43.0828L154.109 42.0675C153.648 41.8051 153.364 41.3157 153.364 40.7856V40.7856C153.364 40.2815 153.106 39.8123 152.681 39.5414L150.562 38.1906V37.6169C150.562 37.289 150.491 36.9649 150.355 36.6667L149.83 35.5208C149.778 35.4067 149.664 35.3335 149.539 35.3335V35.3335C148.298 35.3335 147.293 36.339 147.293 37.5793V37.8335H136.116C133.997 37.8335 131.882 38.0042 129.79 38.3439L122.962 39.4529C120.848 39.7963 118.856 40.6705 117.173 41.9939V41.9939C115.193 43.5499 113.723 45.6613 112.95 48.0579L112.286 50.1179C111.655 52.075 111.333 54.1187 111.333 56.175V62.0002H117.404V61.8091C117.404 60.455 116.307 59.3573 114.953 59.3573V59.3573L116.449 58.4012C117.699 57.6025 118.455 56.2216 118.455 54.7383V54.7383M117.404 52.1192V52.1192C117.404 53.5144 118.164 54.799 119.386 55.4716L121.526 56.649C123.59 57.7852 125.097 59.7201 125.694 62.0002V62.0002H132.232V61.5756C132.232 60.3505 131.239 59.3573 130.014 59.3573V59.3573L129.196 54.3811M129.196 54.3811L130.818 55.3874C133.221 56.8791 134.944 59.253 135.618 62.0002V62.0002H142.039V61.6923C142.039 60.4027 140.994 59.3573 139.704 59.3573V59.3573L140.638 57.4764" stroke="#FF0B37" stroke-width="2" stroke-linejoin="round"/>
<mask id="mask0_603_5602" style="mask-type:alpha" maskUnits="userSpaceOnUse" x="1" y="0" width="125" height="43">
<path d="M21.8096 22.0238L7.19036 36.6431C5.09047 38.743 1.5 37.2557 1.5 34.286V3.33334C1.5 1.49239 2.99238 0 4.83333 0H122.167C124.008 0 125.5 1.49238 125.5 3.33333V33.3335C125.5 35.4861 122.897 36.5641 121.375 35.042C120.432 34.0984 118.902 34.0984 117.958 35.042L117.833 35.1668C116.821 36.1793 115.179 36.1793 114.167 35.1668L110.69 31.6904C109.389 30.3887 107.278 30.3887 105.976 31.6904L96.357 41.3097C95.0553 42.6115 92.9447 42.6115 91.643 41.3097L87.0821 36.7488C86.7606 36.4274 86.2394 36.4274 85.918 36.7488C85.4911 37.1757 84.7653 37.0131 84.5612 36.445L77.4846 16.7415C77.1628 15.8456 75.8895 15.8635 75.5932 16.7682L71.3938 29.5874C70.8316 31.3037 68.6564 31.8232 67.3793 30.5461C66.4335 29.6002 64.8999 29.6002 63.954 30.5461L59.1904 35.3097C57.8886 36.6115 55.7781 36.6115 54.4763 35.3097L47.5237 28.3571C46.2219 27.0554 44.1114 27.0554 42.8096 28.3571L40.1904 30.9764C38.8886 32.2782 36.7781 32.2781 35.4763 30.9764L26.5237 22.0238C25.2219 20.722 23.1114 20.722 21.8096 22.0238Z" fill="#D9D9D9"/>
</mask>
<g mask="url(#mask0_603_5602)">
<circle cx="77.5" cy="26.5" r="22.5" fill="#FF0B37"/>
</g>
<path d="M76.6667 57.7913V65M76.6667 57.7913H68.8574C67.773 57.7913 67.0017 56.7368 67.33 55.7033L69.0476 50.2963M76.6667 57.7913L84.4759 57.7913C85.5603 57.7913 86.3317 56.7368 86.0034 55.7033L84.2857 50.2963M69.0476 50.2963H73.3334M69.0476 50.2963H68.9611C67.8471 50.2963 67.0729 49.188 67.4563 48.1421L70.2381 40.5522M70.2381 40.5522H69.8822C68.7925 40.5522 68.0205 39.4881 68.3587 38.4522L76.0329 14.9416C76.233 14.3285 77.1003 14.3285 77.3004 14.9416L84.9747 38.4522C85.3129 39.4881 84.5409 40.5522 83.4511 40.5522H83.0953M70.2381 40.5522H73.7121M84.2857 50.2963H80M84.2857 50.2963H84.3723C85.4863 50.2963 86.2605 49.188 85.8771 48.1421L83.0953 40.5522M83.0953 40.5522H79.6212" stroke="#FF0B37" stroke-width="2"/>
<path d="M1.5 42.3332L21.8096 22.0235C23.1114 20.7218 25.2219 20.7218 26.5237 22.0235L35.4763 30.9762C36.7781 32.2779 38.8886 32.2779 40.1904 30.9762L42.8096 28.3569C44.1114 27.0551 46.2219 27.0551 47.5237 28.3569L54.4763 35.3095C55.7781 36.6112 57.8886 36.6112 59.1904 35.3095L63.3096 31.1902C64.6114 29.8885 66.7219 29.8885 68.0237 31.1902L70.1667 33.3332M85 37.6665V37.6665C85.8284 36.8381 87.1716 36.8381 88 37.6665L91.643 41.3095C92.9447 42.6112 95.0553 42.6112 96.357 41.3095L105.976 31.6902C107.278 30.3885 109.389 30.3885 110.69 31.6902L114.167 35.1665C115.179 36.179 116.821 36.179 117.833 35.1665V35.1665C118.846 34.154 120.487 34.154 121.5 35.1665L125.5 39.1665" stroke="#FF0B37" stroke-width="2"/>
</svg>
