<svg width="251" height="25" viewBox="0 0 251 25" fill="none" xmlns="http://www.w3.org/2000/svg">
<path fill-rule="evenodd" clip-rule="evenodd" d="M0 0.196289H76.3107V24.1678H0V0.196289Z" fill="#CC1626"/>
<path fill-rule="evenodd" clip-rule="evenodd" d="M10.0662 12.259L13.5355 8.83358L10.0683 5.4082H12.6584L16.1277 8.83358L12.6584 12.259H10.0662ZM5.49945 12.259L8.96878 8.83358L5.49945 5.4082H8.08961L11.5589 8.83358L8.08961 12.259H5.49945Z" fill="white"/>
<path fill-rule="evenodd" clip-rule="evenodd" d="M37.7034 18.9854C38.3705 18.9854 38.8935 18.656 38.8935 17.9913C38.8935 17.4099 38.3664 17.2005 37.899 17.0582L37.8373 17.0399C37.4852 16.9261 37.1764 16.8366 37.1764 16.615C37.1764 16.3935 37.3411 16.2857 37.6252 16.2857C37.9477 16.3058 38.2593 16.4088 38.5291 16.5845L38.8215 16.0682C38.4707 15.8421 38.0626 15.7181 37.6437 15.7104C37.0075 15.7104 36.5031 16.0743 36.5031 16.674C36.5031 17.2737 37.0302 17.4871 37.5037 17.6213L37.5593 17.6376C37.9114 17.7412 38.2202 17.8246 38.2202 18.0584C38.2202 18.2921 38.037 18.4121 37.722 18.4121C37.3387 18.3959 36.9708 18.2592 36.6719 18.0218L36.3445 18.5137C36.733 18.8136 37.2104 18.9792 37.7034 18.9854ZM41.1069 18.9976C41.3568 19.005 41.6051 18.9555 41.8326 18.8529C42.06 18.7503 42.2605 18.5974 42.4184 18.406L41.9881 18.0319C41.8783 18.1517 41.7441 18.2472 41.5944 18.3123C41.4447 18.3775 41.2828 18.4108 41.1192 18.4101C40.8891 18.4176 40.6649 18.3373 40.4931 18.1859C40.3213 18.0345 40.2152 17.8235 40.1968 17.5969H42.5523C42.5523 17.5603 42.5646 17.4404 42.5646 17.3936C42.5646 16.4829 42.0478 15.6921 41.0286 15.6921C40.1124 15.6921 39.4638 16.4341 39.4638 17.3387C39.4527 17.5564 39.4872 17.7739 39.5654 17.9778C39.6435 18.1816 39.7635 18.3672 39.9178 18.523C40.0721 18.6788 40.2575 18.8014 40.4621 18.8831C40.6667 18.9647 40.8863 19.0037 41.1069 18.9976ZM40.1907 17.1233C40.2586 16.6333 40.5736 16.2918 41.0142 16.2918C41.5001 16.2918 41.7781 16.6557 41.8275 17.1233H40.1907ZM44.7842 18.9976C45.0339 19.0054 45.282 18.9561 45.5092 18.8535C45.7364 18.7509 45.9364 18.5977 46.0937 18.406L45.651 17.973C45.5505 18.0943 45.4252 18.1933 45.2833 18.2633C45.1413 18.3334 44.986 18.373 44.8274 18.3796C44.696 18.3776 44.5664 18.3494 44.4463 18.2967C44.3262 18.2441 44.2181 18.168 44.1285 18.0731C44.0389 17.9781 43.9696 17.8663 43.9248 17.7443C43.8801 17.6223 43.8607 17.4927 43.8679 17.3631C43.8679 16.8 44.2571 16.3467 44.7903 16.3467C44.9495 16.3503 45.1059 16.3886 45.2483 16.4589C45.3907 16.5292 45.5155 16.6297 45.6139 16.7533L46.0689 16.2674C45.9107 16.0874 45.7134 15.9449 45.4916 15.8506C45.2699 15.7563 45.0295 15.7125 44.7883 15.7226C44.3553 15.7376 43.9451 15.918 43.6442 16.2257C43.3433 16.5335 43.1751 16.9445 43.1751 17.3723C43.1751 17.8 43.3433 18.2111 43.6442 18.5188C43.9451 18.8266 44.3553 19.0069 44.7883 19.0219L44.7842 18.9976ZM47.8726 18.9976C48.0742 18.9994 48.2727 18.9489 48.4483 18.8511C48.6239 18.7534 48.7705 18.6118 48.8732 18.4405V18.9325H49.6062V15.7633H48.8732V17.5481C48.8732 18.0401 48.5747 18.3328 48.1505 18.3328C47.7264 18.3328 47.4649 18.0523 47.4649 17.5603V15.7633H46.7319V17.7758C46.7319 18.5137 47.1561 18.9915 47.8726 18.9915V18.9976ZM50.5286 18.9325H51.274V17.729C51.274 16.8895 51.7228 16.4768 52.3652 16.4768H52.4084V15.7043C51.8443 15.6799 51.4737 16.0031 51.274 16.4768V15.7633H50.5389L50.5286 18.9325ZM54.3933 19.0037C54.6432 19.0111 54.8915 18.9616 55.119 18.859C55.3464 18.7564 55.5469 18.6035 55.7048 18.4121L55.2724 18.034C55.163 18.1536 55.0292 18.2492 54.8799 18.3143C54.7305 18.3795 54.5689 18.4128 54.4056 18.4121C54.1755 18.4196 53.9512 18.3393 53.7795 18.1879C53.6077 18.0365 53.5016 17.8256 53.4832 17.5989H55.8366C55.8366 17.5624 55.8489 17.4424 55.8489 17.3957C55.8489 16.4849 55.3342 15.6941 54.315 15.6941C53.3988 15.6941 52.7502 16.4361 52.7502 17.3408C52.7394 17.5582 52.7741 17.7756 52.8524 17.9792C52.9307 18.1827 53.0507 18.3681 53.205 18.5237C53.3593 18.6793 53.5445 18.8017 53.749 18.8832C53.9535 18.9648 54.1728 19.0037 54.3933 18.9976V19.0037ZM53.477 17.1293C53.545 16.6394 53.86 16.2979 54.3006 16.2979C54.7845 16.2979 55.0645 16.6618 55.1139 17.1293H53.477ZM57.912 18.9976C58.1298 18.9987 58.3444 18.945 58.5353 18.8415C58.7263 18.738 58.8873 18.5881 59.0033 18.406V18.9325H59.7383V14.5537H59.0033V16.2552C58.8806 16.0821 58.7172 15.941 58.5271 15.844C58.3371 15.7469 58.126 15.6969 57.912 15.6982C57.1481 15.6982 56.4254 16.2918 56.4254 17.3387C56.4254 18.3857 57.1605 18.9915 57.912 18.9915V18.9976ZM58.087 18.3694C57.5908 18.3694 57.1667 17.9628 57.1667 17.353C57.1667 16.7431 57.5785 16.3365 58.087 16.3365C58.2164 16.3406 58.3437 16.3704 58.4611 16.4242C58.5786 16.478 58.6838 16.5546 58.7705 16.6495C58.8572 16.7445 58.9236 16.8557 58.9657 16.9766C59.0079 17.0974 59.0248 17.2255 59.0156 17.353C59.0156 17.9567 58.5791 18.3633 58.087 18.3633V18.3694ZM64.2947 18.9976C65.0586 18.9976 65.7854 18.406 65.7854 17.357C65.7854 16.3081 65.0524 15.7043 64.2947 15.7043C64.0793 15.7044 63.8674 15.7583 63.6788 15.861C63.4901 15.9638 63.3309 16.112 63.2159 16.2918V14.5537H62.4746V18.9264H63.2159V18.4385C63.3366 18.6103 63.498 18.7504 63.686 18.8468C63.874 18.9431 64.0829 18.9928 64.2947 18.9915V18.9976ZM64.1239 18.3694C63.8508 18.3694 63.589 18.2623 63.3959 18.0717C63.2028 17.8811 63.0944 17.6225 63.0944 17.353C63.0944 17.0834 63.2028 16.8249 63.3959 16.6342C63.589 16.4436 63.8508 16.3365 64.1239 16.3365C64.6221 16.3365 65.0401 16.7431 65.0401 17.353C65.0401 17.9628 64.6283 18.3633 64.1239 18.3633V18.3694ZM67.0414 19.9083C67.5582 19.9083 67.8423 19.6684 68.0976 19.0219L69.3721 15.7694H68.6082L67.7847 18.1173L66.8746 15.7694H66.0922L67.4264 18.9325C67.3049 19.2069 67.1773 19.2984 66.9714 19.2984C66.8201 19.2944 66.6722 19.2532 66.5411 19.1785L66.2919 19.7172C66.521 19.8427 66.7794 19.9065 67.0414 19.9022V19.9083Z" fill="white"/>
<path fill-rule="evenodd" clip-rule="evenodd" d="M26.4677 11.2302C26.8069 11.221 27.1339 11.1032 27.3992 10.8943C27.6645 10.6855 27.8538 10.3971 27.9384 10.0727C28.0231 9.74829 27.9985 9.40549 27.8684 9.0961C27.7383 8.7867 27.5097 8.52753 27.2172 8.35773C26.9899 8.226 26.7313 8.15587 26.4677 8.15444C26.2019 8.1539 25.9409 8.22413 25.7121 8.35773C25.4779 8.49527 25.2848 8.69179 25.1528 8.92718C25.0207 9.16257 24.9544 9.42837 24.9606 9.69739C24.9551 9.8962 24.99 10.0941 25.0633 10.2793C25.1365 10.4646 25.2467 10.6335 25.3872 10.776C25.5277 10.9185 25.6957 11.0318 25.8813 11.1091C26.0669 11.1864 26.2663 11.2262 26.4677 11.2261V11.2302ZM19.6341 9.11192V6.64809H20.9745C21.1387 6.64609 21.3017 6.67735 21.4532 6.73993C21.6048 6.80251 21.7418 6.8951 21.8557 7.01197C21.9752 7.12072 22.0699 7.2532 22.1338 7.40071C22.1977 7.54822 22.2292 7.70741 22.2263 7.86781C22.2236 8.19479 22.0909 8.50763 21.8567 8.73885C21.6225 8.97006 21.3056 9.10114 20.9745 9.10379H19.6341V9.11192ZM19.6341 10.3418H20.9745C21.3091 10.3409 21.64 10.2717 21.9463 10.1385C22.5416 9.88876 23.0165 9.42206 23.2722 8.83545C23.4031 8.53277 23.4705 8.20707 23.4705 7.87797C23.4705 7.54888 23.4031 7.22318 23.2722 6.9205C23.145 6.63065 22.9633 6.36717 22.7369 6.14394C22.5086 5.92025 22.2397 5.74095 21.9442 5.6154C21.6379 5.48222 21.3071 5.413 20.9724 5.41211H18.3884V12.2425H19.6238L19.6341 10.3418ZM28.0758 11.6571C27.8578 11.8815 27.5955 12.0593 27.3051 12.1796C27.0146 12.2999 26.7023 12.36 26.3874 12.3564C24.8823 12.3564 23.789 11.1611 23.789 9.70145C23.789 8.24186 24.8803 7.03434 26.3874 7.03434C26.7029 7.03208 27.0154 7.09369 27.3058 7.21537C27.5962 7.33704 27.8583 7.5162 28.0758 7.74177V7.09126H29.2432V12.2954H28.0717L28.0758 11.6571ZM34.2526 11.5758C34.06 11.7919 33.8212 11.9633 33.5535 12.0775C33.2858 12.1918 32.9958 12.246 32.7043 12.2364C31.1663 12.2364 30.4003 11.1895 30.4003 9.74008V7.09735H31.5822V9.68113C31.5822 10.5451 31.9363 11.1041 32.8566 11.1041C33.8491 11.1041 34.2629 10.3987 34.2629 9.47784V7.09329H35.42V11.5656C35.42 13.1248 34.442 14.2083 32.8319 14.2083C32.0061 14.215 31.2043 13.9343 30.5671 13.4155L30.5012 13.3606L31.1848 12.6369L31.2424 12.6694C31.7189 12.9719 32.2737 13.1321 32.8402 13.1309C33.7214 13.1309 34.2464 12.6654 34.2464 11.7831L34.2526 11.5758Z" fill="white"/>
<path fill-rule="evenodd" clip-rule="evenodd" d="M54.3274 8.50011L54.3644 8.42896L54.3768 8.4066L54.4138 8.33951L54.4262 8.31919V8.30496L54.4406 8.28056C54.453 8.2643 54.4633 8.246 54.4736 8.22974L54.49 8.20535L54.5065 8.18095L54.5683 8.0976L54.5889 8.07118C54.8327 7.75544 55.1469 7.49948 55.5073 7.32319C55.8676 7.14691 56.2642 7.05504 56.6663 7.05474H56.7734C58.2497 7.0832 59.3162 8.27446 59.3162 9.70967C59.3162 11.1449 58.2579 12.3402 56.7507 12.3402C56.4619 12.3415 56.1762 12.2818 55.9126 12.165C55.6491 12.0483 55.414 11.8772 55.223 11.6632V14.1271H54.0515V9.56533C54.0655 9.24129 54.1387 8.92242 54.2677 8.62412L54.278 8.59972V8.58346V8.55703L54.2903 8.53467L54.3274 8.50011ZM36.5978 5.41016H37.8455V12.2325H36.5998L36.5978 5.41016ZM39.5482 8.82943L42.4308 12.2507H40.7836L38.0082 8.83147L40.7836 5.41016H42.4308L39.5482 8.82943ZM43.485 10.0227C43.5261 10.8359 44.1912 11.2607 44.9921 11.2607C45.5545 11.2613 46.1065 11.1116 46.5898 10.8277L46.6475 10.7952L47.3022 11.4905L47.2302 11.5453C46.5944 12.0486 45.8069 12.3283 44.9921 12.3402C43.4108 12.3402 42.2702 11.2506 42.2702 9.68324C42.2702 8.15249 43.3614 7.01815 44.9303 7.01815C45.9907 7.01815 46.8431 7.52027 47.2652 8.48385C47.4555 8.95676 47.4886 9.47714 47.3599 9.96987L47.3414 10.0268L43.485 10.0227ZM49.2953 10.0227C49.3365 10.8359 50.0015 11.2587 50.8025 11.2587C51.3652 11.2589 51.9176 11.1101 52.4023 10.8277L52.4578 10.7952L53.1126 11.4905L53.0405 11.5453C52.4044 12.048 51.6171 12.3277 50.8025 12.3402C49.2212 12.3402 48.0805 11.2506 48.0805 9.68324C48.0805 8.15249 49.1718 7.01815 50.7407 7.01815C51.801 7.01815 52.6534 7.52027 53.0776 8.48385C53.2668 8.95701 53.2999 9.47703 53.1723 9.96987L53.1538 10.0268L49.2953 10.0227ZM61.2598 10.0227C61.301 10.8359 61.9661 11.2607 62.767 11.2607C63.3291 11.261 63.8809 11.1121 64.3647 10.8298L64.4224 10.7972L65.0689 11.4905L64.9968 11.5433C64.3635 12.0454 63.5791 12.3257 62.767 12.3402C61.1857 12.3402 60.0451 11.2506 60.0451 9.68324C60.0451 8.15249 61.1363 7.01612 62.7052 7.01612C63.7656 7.01612 64.618 7.51824 65.0401 8.48385C65.2303 8.95676 65.2635 9.47714 65.1348 9.96987L65.1163 10.0248L61.2598 10.0227ZM55.2148 9.6812C55.2148 11.7994 58.1673 11.6206 58.1673 9.6812C58.1673 7.74185 55.2148 7.56093 55.2148 9.67917V9.6812ZM43.5529 9.09777H46.2625C46.2413 9.00888 46.211 8.92237 46.1719 8.8396C46.0635 8.60847 45.8885 8.41403 45.6688 8.28061C45.449 8.14718 45.1943 8.0807 44.9365 8.08947C44.6457 8.07871 44.3588 8.1585 44.1164 8.31756C43.874 8.47661 43.6884 8.70689 43.5858 8.9758C43.5727 9.01586 43.5617 9.05658 43.5529 9.09777ZM49.3653 9.09777H52.0728C52.0532 9.00779 52.0228 8.92044 51.9822 8.83757C51.8733 8.60698 51.6981 8.41312 51.4785 8.2801C51.2588 8.14708 51.0044 8.08079 50.7469 8.08947C50.4559 8.07809 50.1687 8.15763 49.9262 8.31677C49.6837 8.47591 49.4982 8.70653 49.3962 8.9758C49.3837 9.0159 49.3734 9.05661 49.3653 9.09777ZM61.3278 9.09777H64.0394C64.0179 9.00832 63.9876 8.92116 63.9488 8.83757C63.8404 8.60665 63.6653 8.41249 63.4455 8.27941C63.2257 8.14633 62.9711 8.08026 62.7135 8.08947C62.4227 8.07794 62.1357 8.15718 61.8933 8.31594C61.6508 8.47469 61.4652 8.70488 61.3628 8.97377C61.349 9.01448 61.3373 9.05587 61.3278 9.09777ZM67.2555 7.77031C67.4911 7.52374 67.7774 7.32991 68.0953 7.20191C68.4132 7.07391 68.7552 7.01471 69.0983 7.02832H69.3721V8.18705H68.8656C67.7352 8.18705 67.2658 8.94734 67.2658 9.9841V12.2751H66.0531V7.08524H67.2555V7.77031Z" fill="#FFCC00"/>
<path fill-rule="evenodd" clip-rule="evenodd" d="M104.52 19.2924L106.981 5.09082H110.907L108.449 19.2924H104.52Z" fill="#01549A"/>
<path fill-rule="evenodd" clip-rule="evenodd" d="M122.67 5.44297C121.545 5.0535 120.362 4.85487 119.17 4.85547C115.282 4.85547 112.565 6.77653 112.544 9.53106C112.524 11.5639 114.488 12.7044 115.976 13.3935C117.504 14.0989 118.019 14.5299 118 15.156C118 16.1155 116.79 16.5465 115.659 16.5465C114.384 16.5824 113.117 16.3256 111.959 15.7963L111.443 15.5626L110.907 18.7338C111.819 19.1404 113.506 19.4799 115.272 19.4982C119.39 19.4982 122.056 17.5995 122.096 14.6417C122.116 13.0357 121.066 11.7957 118.801 10.7792C117.432 10.1328 116.598 9.70182 116.598 9.03504C116.598 8.42518 117.313 7.80109 118.84 7.80109C119.847 7.77575 120.848 7.96287 121.776 8.34996L122.133 8.50649L122.67 5.44297Z" fill="#01549A"/>
<path fill-rule="evenodd" clip-rule="evenodd" d="M132.728 5.11133H129.693C128.76 5.11133 128.046 5.36544 127.634 6.28632L121.822 19.3109H125.94C125.94 19.3109 126.613 17.5484 126.763 17.1764H131.779C131.898 17.6663 132.254 19.3109 132.254 19.3109H135.884L132.728 5.11133ZM127.887 14.2592L129.456 10.3073C129.415 10.346 129.773 9.49418 129.971 8.95548L130.228 10.1752C130.228 10.1752 130.982 13.564 131.143 14.2694L127.887 14.2592Z" fill="#01549A"/>
<path fill-rule="evenodd" clip-rule="evenodd" d="M101.247 5.11157L97.3943 14.7799L96.997 12.8222C96.2825 10.5495 94.0403 8.10191 91.5613 6.86796L95.0718 19.2847H99.2186L105.395 5.10547L101.247 5.11157Z" fill="#01549A"/>
<path fill-rule="evenodd" clip-rule="evenodd" d="M93.8468 5.09082H87.5114L87.4723 5.40388C92.3726 6.57888 95.6463 9.41879 96.9949 12.8279L95.6051 6.30444C95.3745 5.40388 94.6992 5.12944 93.8468 5.09082Z" fill="#F7A707"/>
<path d="M172.562 21.5751H161.94V2.73047H172.562V21.5751Z" fill="#EA5E20"/>
<path d="M162.614 12.1531C162.612 10.3379 163.029 8.54618 163.832 6.91343C164.635 5.28068 165.804 3.8497 167.25 2.72877C165.459 1.33599 163.306 0.469194 161.039 0.227516C158.772 -0.0141625 156.482 0.379039 154.431 1.36215C152.379 2.34525 150.65 3.87857 149.439 5.7867C148.229 7.69484 147.587 9.90075 147.587 12.1521C147.587 14.4035 148.229 16.6094 149.439 18.5175C150.65 20.4257 152.379 21.959 154.431 22.9421C156.482 23.9252 158.772 24.3184 161.039 24.0767C163.306 23.835 165.459 22.9682 167.25 21.5755C165.804 20.4549 164.635 19.0243 163.832 17.3919C163.029 15.7595 162.612 13.968 162.614 12.1531Z" fill="#DE1E26"/>
<path d="M186.891 12.1532C186.887 14.4006 186.244 16.6018 185.035 18.5059C183.826 20.41 182.099 21.9404 180.052 22.9226C178.005 23.9048 175.719 24.2993 173.455 24.0611C171.192 23.8229 169.042 22.9617 167.25 21.5756C168.694 20.4531 169.861 19.0219 170.664 17.3896C171.466 15.7573 171.883 13.9666 171.883 12.1522C171.883 10.3378 171.466 8.54708 170.664 6.91482C169.861 5.28255 168.694 3.85131 167.25 2.72887C169.042 1.34262 171.192 0.481353 173.456 0.24327C175.72 0.00518681 178.005 0.399866 180.053 1.38231C182.1 2.36475 183.827 3.89542 185.036 5.79981C186.245 7.7042 186.887 9.90567 186.891 12.1532Z" fill="#F59F0D"/>
<path d="M182.314 12.7463C182.314 12.1364 182.699 11.6669 183.32 11.6669C183.942 11.6669 184.307 12.1364 184.307 12.7463C184.307 13.3562 183.915 13.8278 183.32 13.8278C182.725 13.8278 182.314 13.3562 182.314 12.7463ZM184.928 12.7463V9.87793H184.282V11.5449C184.156 11.3925 183.995 11.2712 183.813 11.1904C183.632 11.1096 183.433 11.0716 183.234 11.0794C182.33 11.0794 181.64 11.7787 181.64 12.7524C181.64 13.7261 182.33 14.4254 183.234 14.4254C183.433 14.4344 183.631 14.3975 183.813 14.3178C183.995 14.2381 184.155 14.1176 184.282 13.966V14.3523H184.93L184.928 12.7463ZM175.799 12.7463C175.799 12.1364 176.184 11.6669 176.804 11.6669C177.424 11.6669 177.79 12.1364 177.79 12.7463C177.79 13.3562 177.399 13.8278 176.804 13.8278C176.209 13.8278 175.799 13.3562 175.799 12.7463ZM178.412 12.7463V11.1607H177.763V11.5449C177.638 11.3923 177.478 11.2708 177.296 11.19C177.115 11.1092 176.916 11.0713 176.717 11.0794C175.811 11.0794 175.124 11.7787 175.124 12.7524C175.124 13.7261 175.811 14.4254 176.717 14.4254C176.916 14.4345 177.114 14.3977 177.295 14.318C177.477 14.2382 177.637 14.1177 177.763 13.966V14.3523H178.412V12.7463ZM180.897 11.0733C180.722 11.0683 180.549 11.1087 180.395 11.1904C180.24 11.2721 180.11 11.3922 180.018 11.5388V11.1607H179.378V14.3462H180.026V12.543C180.026 12.0185 180.281 11.677 180.741 11.677C180.891 11.6751 181.041 11.7027 181.181 11.7583L181.387 11.1485C181.229 11.0994 181.063 11.076 180.897 11.0794V11.0733ZM155.982 12.7463C155.982 12.1364 156.367 11.6669 156.986 11.6669C157.606 11.6669 157.973 12.1364 157.973 12.7463C157.973 13.3562 157.581 13.8278 156.986 13.8278C156.391 13.8278 155.982 13.3562 155.982 12.7463ZM158.594 12.7463V11.1607H157.946V11.5449C157.82 11.392 157.66 11.2704 157.478 11.1895C157.296 11.1087 157.097 11.071 156.898 11.0794C155.992 11.0794 155.304 11.7787 155.304 12.7524C155.304 13.7261 155.992 14.4254 156.898 14.4254C157.097 14.4349 157.295 14.3982 157.477 14.3185C157.659 14.2387 157.82 14.118 157.946 13.966V14.3523H158.594V12.7463ZM167.331 11.6669C167.441 11.663 167.551 11.6812 167.655 11.7204C167.758 11.7595 167.852 11.8188 167.932 11.8947C168.011 11.9706 168.074 12.0615 168.118 12.1621C168.161 12.2627 168.183 12.3708 168.183 12.48H166.439C166.451 12.2571 166.552 12.0478 166.718 11.897C166.885 11.7461 167.105 11.6657 167.331 11.6729V11.6669ZM167.345 11.0733C166.4 11.0733 165.751 11.7461 165.751 12.7402C165.751 13.7343 166.427 14.4194 167.399 14.4194C167.88 14.436 168.351 14.2776 168.722 13.9742L168.377 13.5005C168.11 13.71 167.78 13.8265 167.44 13.8319C167.199 13.8444 166.962 13.7661 166.778 13.6129C166.593 13.4597 166.474 13.2429 166.445 13.0065H168.856C168.856 12.9191 168.871 12.8337 168.871 12.7402C168.856 11.7522 168.251 11.0794 167.345 11.0794V11.0733ZM171.875 12.7463C171.861 12.9703 171.896 13.1946 171.977 13.4043C172.057 13.6141 172.182 13.8046 172.343 13.9632C172.504 14.1219 172.696 14.2451 172.909 14.3248C173.121 14.4045 173.349 14.4388 173.575 14.4254C173.997 14.4467 174.411 14.3111 174.737 14.0453L174.399 13.5452C174.156 13.7287 173.86 13.8299 173.555 13.8339C173.416 13.8298 173.28 13.7982 173.154 13.7408C173.028 13.6833 172.915 13.6014 172.822 13.4998C172.729 13.3982 172.657 13.2791 172.612 13.1496C172.567 13.0201 172.548 12.8829 172.558 12.7463C172.558 12.1059 172.997 11.6729 173.557 11.6669C173.862 11.6699 174.158 11.7705 174.401 11.9535L174.739 11.4534C174.412 11.1893 173.997 11.0559 173.575 11.0794C173.35 11.0674 173.125 11.1023 172.915 11.1817C172.704 11.2612 172.513 11.3835 172.353 11.5407C172.194 11.6979 172.069 11.8864 171.988 12.0941C171.907 12.3018 171.871 12.524 171.883 12.7463H171.875ZM162.082 11.4066C161.686 11.1724 161.229 11.0566 160.767 11.0733C159.943 11.0733 159.449 11.4534 159.449 12.0897C159.449 12.6101 159.813 12.9232 160.536 13.0248L160.868 13.0695C161.253 13.1244 161.463 13.2566 161.463 13.4375C161.463 13.6835 161.178 13.844 160.699 13.844C160.313 13.8579 159.934 13.7402 159.626 13.5107L159.295 14.0107C159.707 14.285 160.195 14.427 160.693 14.4173C161.625 14.4173 162.134 13.9904 162.134 13.3846C162.134 12.8256 161.743 12.539 161.032 12.4373L160.701 12.3906C160.398 12.3499 160.128 12.2584 160.128 12.045C160.128 11.8315 160.384 11.6506 160.769 11.6506C161.127 11.6573 161.478 11.7546 161.788 11.9332L162.082 11.4066ZM171.142 11.0733C170.967 11.0683 170.794 11.1087 170.64 11.1904C170.486 11.2721 170.357 11.3922 170.265 11.5388V11.1607H169.624V14.3462H170.281V12.543C170.281 12.0185 170.538 11.677 170.998 11.677C171.148 11.6749 171.297 11.7026 171.436 11.7583L171.642 11.1485C171.482 11.0987 171.314 11.0753 171.146 11.0794L171.142 11.0733ZM165.154 11.1546H163.979V10.193H163.324V11.1607H162.64V11.74H163.324V13.2444C163.324 13.9863 163.585 14.4254 164.417 14.4254C164.727 14.4266 165.031 14.3413 165.294 14.1795L165.088 13.6123C164.901 13.7229 164.689 13.7851 164.471 13.7932C164.121 13.7932 163.979 13.5777 163.979 13.2586V11.74H165.154V11.1546ZM154.633 14.3462V12.3397C154.633 11.5855 154.174 11.0855 153.398 11.0794C153.175 11.0654 152.952 11.1106 152.753 11.2104C152.554 11.3101 152.386 11.4607 152.265 11.6465C152.155 11.4662 151.998 11.3184 151.811 11.2186C151.623 11.1188 151.412 11.0707 151.199 11.0794C151.01 11.0683 150.821 11.1052 150.65 11.1867C150.48 11.2682 150.333 11.3915 150.225 11.5449V11.1607H149.578V14.3462H150.233V12.5166C150.233 11.9636 150.571 11.6709 151.057 11.6709C151.543 11.6709 151.786 11.9697 151.786 12.5105V14.3401H152.442V12.5105C152.431 12.3995 152.444 12.2874 152.481 12.182C152.518 12.0765 152.578 11.9803 152.656 11.8999C152.735 11.8194 152.83 11.7568 152.935 11.7162C153.04 11.6756 153.153 11.6581 153.266 11.6648C153.744 11.6648 154.001 11.9636 154.001 12.5044V14.334L154.633 14.3462Z" fill="white"/>
<path fill-rule="evenodd" clip-rule="evenodd" d="M199.24 4.95117H203.871C205.339 4.95117 206.01 6.00013 206.379 7.20155L208.335 13.5725H208.72L210.676 7.20155C211.042 6.01029 211.705 4.9654 213.146 4.95117H217.736V19.4109H213.146V10.8302H212.827L210.12 19.4109H206.93L204.223 10.8302H203.83V19.4109H199.24V4.95117ZM241.024 14.8207H245.991C247.016 14.8178 248.017 14.5044 248.856 13.9228C249.696 13.3412 250.335 12.5194 250.687 11.5681H236.437V19.4109H241.024V14.8207ZM219.669 4.95117H224.258V13.5319H224.856C225.79 11.4238 226.709 9.31776 227.629 7.20155C228.247 5.76025 228.864 5.1321 230.425 4.95117H234.362V19.4109H229.785V10.8302H229.332C228.397 12.9383 227.479 15.0443 226.558 17.1606C225.957 18.5429 225.294 19.2747 223.762 19.4109H219.679L219.669 4.95117Z" fill="#4DB45E"/>
<path fill-rule="evenodd" clip-rule="evenodd" d="M250.992 10.9764V10.8809C250.992 8.88666 250.883 7.89869 249.907 6.76232C249.488 6.24298 248.968 5.81096 248.379 5.49131C247.789 5.17166 247.141 4.97075 246.472 4.90021L246.254 4.87988H235.754C235.984 7.63238 238.321 9.81161 240.631 10.6329C241.22 10.8177 241.829 10.933 242.445 10.9764H250.992Z" fill="#1AA6DE"/>
</svg>
