<svg width="359" height="109" viewBox="0 0 359 109" fill="none" xmlns="http://www.w3.org/2000/svg">
<g clip-path="url(#clip0_418_9992)">
<path d="M93.7998 69.7999V78.0665L90.0805 89.2244C89.7179 90.3121 89.5331 91.451 89.5331 92.5975V102.333H88.9998C86.9379 102.333 85.2664 104.005 85.2664 106.067V107.667H104.066V101.733C104.066 96.6154 108.215 92.4666 113.333 92.4666V92.4666C118.451 92.4666 122.6 96.6154 122.6 101.733V107.667H141.8V106.067C141.8 104.005 140.128 102.333 138.066 102.333H136.466V96.0594C136.466 92.62 135.912 89.2031 134.824 85.9402L132.2 78.0665V71.4542M93.7998 69.7999V69.7999C88.3506 69.7999 83.9331 65.3824 83.9331 59.9332V55.4251C83.9331 52.7453 84.6441 50.1134 85.9935 47.798V47.798L99.8786 22.0848L101.497 13.5866C101.846 11.7589 103.205 10.2894 105 9.79983V9.79983V7.55983C105 5.70415 106.504 4.19983 108.36 4.19983H109.533C111.006 4.19983 112.2 5.39374 112.2 6.8665V6.8665H124.124C125.538 6.8665 126.895 7.4284 127.895 8.4286L128.504 9.03774C129.505 10.0379 130.861 10.5998 132.276 10.5998H137.8C138.683 10.5998 139.4 11.3162 139.4 12.1998V16.2585C139.4 17.0938 139.182 17.9147 138.767 18.6399L137.266 21.2665L129.751 23.4373C129.606 23.479 129.457 23.5001 129.307 23.5001H128.208C127.432 23.5001 126.768 24.0572 126.633 24.8216L125.943 28.722C125.853 29.2311 126.015 29.7522 126.377 30.1212L135.087 38.9995C138.022 41.9909 139.666 46.0143 139.666 50.2049V64.7688V64.7688C139.666 68.461 136.673 71.4542 132.981 71.4542H132.2M93.7998 69.7999C100.378 70.0665 113.426 67.8799 113 56.9999L111.751 53.4607C111.558 52.9156 110.955 52.6361 110.415 52.8418L105.8 54.5999L104.733 57.5332L97.1331 60M132.2 53V71.4542" stroke="#FF0B37" stroke-width="2"/>
<path d="M107.667 67V75.6667" stroke="#FF0B37" stroke-width="2"/>
<path d="M107.667 54.3333V44.2184M107.667 44.2184V28.7492C107.667 28.2526 108.19 27.9304 108.634 28.1538L123.753 35.7735C124.253 36.0259 124.238 36.7461 123.727 36.9766L107.667 44.2184Z" stroke="#FF0B37" stroke-width="2"/>
<circle cx="189.5" cy="24.5" r="22.5" fill="#FF0B37"/>
<path d="M162 50L177.669 34.6433C178.836 33.5001 180.703 33.5001 181.869 34.6433L185.285 37.9908C186.451 39.1341 188.318 39.1341 189.484 37.9908L199.669 28.0091C200.836 26.8659 202.703 26.8659 203.869 28.0091L206.439 30.5274C207.605 31.6706 209.472 31.6706 210.638 30.5274L217.439 23.8628C218.605 22.7196 220.487 22.7348 221.654 23.878V23.878C222.82 25.0213 224.703 25.0365 225.869 23.8933L231.823 18.0579C232.99 16.9147 234.856 16.9147 236.023 18.0579L243.202 25.0938C243.763 25.6434 244.517 25.9512 245.302 25.9512H253.006C253.791 25.9512 254.545 25.6434 255.106 25.0938L258.9 21.375C260.067 20.2318 261.933 20.2318 263.1 21.375L272 30.0976L278.362 36.3323C279.528 37.4755 281.395 37.4755 282.561 36.3323L284.285 34.6433C285.451 33.5001 287.318 33.5001 288.484 34.6433L294 40.0488" stroke="#FF0B37" stroke-width="2"/>
<mask id="mask0_418_9992" style="mask-type:alpha" maskUnits="userSpaceOnUse" x="167" y="2" width="45" height="45">
<circle cx="189.5" cy="24.5" r="22.5" fill="#FF0B37"/>
</mask>
<g mask="url(#mask0_418_9992)">
<path d="M162 50L177.669 34.6433C178.836 33.5001 180.703 33.5001 181.869 34.6433L185.285 37.9908C186.451 39.1341 188.318 39.1341 189.484 37.9908L199.669 28.0091C200.836 26.8659 202.703 26.8659 203.869 28.0091L206.439 30.5274C207.605 31.6706 209.472 31.6706 210.638 30.5274L217.439 23.8628C218.605 22.7196 220.487 22.7348 221.654 23.878V23.878C222.82 25.0213 224.703 25.0365 225.869 23.8933L231.823 18.0579C232.99 16.9147 234.856 16.9147 236.023 18.0579L243.202 25.0938C243.763 25.6434 244.517 25.9512 245.302 25.9512H253.006C253.791 25.9512 254.545 25.6434 255.106 25.0938L258.9 21.375C260.067 20.2318 261.933 20.2318 263.1 21.375L272 30.0976L278.362 36.3323C279.528 37.4755 281.395 37.4755 282.561 36.3323L284.285 34.6433C285.451 33.5001 287.318 33.5001 288.484 34.6433L294 40.0488" stroke="white" stroke-width="2"/>
</g>
<path d="M78.2002 51.1222L77.5205 50.4426C76.1715 49.0936 73.9843 49.0936 72.6353 50.4426L71.2761 51.8018C69.9271 53.1509 67.7399 53.1509 66.3908 51.8018L65.0316 50.4426C63.6826 49.0936 61.4954 49.0936 60.1464 50.4426L58.7872 51.8018C57.4381 53.1509 55.2509 53.1509 53.9019 51.8018L52.5427 50.4426C51.1937 49.0936 49.0065 49.0936 47.6575 50.4426L46.2982 51.8018C44.9492 53.1509 42.762 53.1509 41.413 51.8018L40.0538 50.4426C38.7048 49.0936 36.5176 49.0936 35.1685 50.4426L33.8093 51.8018C32.4603 53.1509 30.2731 53.1509 28.9241 51.8018L27.5648 50.4426C26.2158 49.0936 24.0286 49.0936 22.6796 50.4426L22 51.1222" stroke="#FF0B37" stroke-width="2"/>
<path d="M78.3333 62.5483L77.6537 61.8686C76.3047 60.5196 74.1175 60.5196 72.7685 61.8686L71.4092 63.2279C70.0602 64.5769 67.873 64.5769 66.524 63.2279L65.1648 61.8686C63.8158 60.5196 61.6286 60.5196 60.2795 61.8686L58.9203 63.2279C57.5713 64.5769 55.3841 64.5769 54.0351 63.2279L53.3555 62.5483" stroke="#FF0B37" stroke-width="2"/>
<path d="M53.3548 56.9681L52.6752 56.2884C51.3262 54.9394 49.139 54.9394 47.79 56.2884L46.4307 57.6477C45.0817 58.9967 42.8945 58.9967 41.5455 57.6477L40.1863 56.2884C38.8372 54.9394 36.65 54.9394 35.301 56.2884L33.9418 57.6477C32.5928 58.9967 30.4056 58.9967 29.0566 57.6477L28.377 56.9681" stroke="#FF0B37" stroke-width="2"/>
<path d="M206.033 56.9681L205.354 56.2884C204.005 54.9394 201.817 54.9394 200.468 56.2884L199.109 57.6477C197.76 58.9967 195.573 58.9967 194.224 57.6477L192.865 56.2884C191.516 54.9394 189.328 54.9394 187.979 56.2884L186.62 57.6477C185.271 58.9967 183.084 58.9967 181.735 57.6477L180.376 56.2884C179.027 54.9394 176.839 54.9394 175.49 56.2884L174.131 57.6477C172.782 58.9967 170.595 58.9967 169.246 57.6477L167.887 56.2884C166.538 54.9394 164.351 54.9394 163.002 56.2884L161.642 57.6477C160.293 58.9967 158.106 58.9967 156.757 57.6477L155.398 56.2884C154.049 54.9394 151.862 54.9394 150.513 56.2884L149.833 56.9681" stroke="#FF0B37" stroke-width="2"/>
<path d="M168.7 62.5483L168.02 61.8686C166.671 60.5196 164.484 60.5196 163.135 61.8686L161.775 63.2279C160.426 64.5769 158.239 64.5769 156.89 63.2279L155.531 61.8686C154.182 60.5196 151.995 60.5196 150.646 61.8686L149.287 63.2279C147.938 64.5769 145.75 64.5769 144.401 63.2279L143.722 62.5483" stroke="#FF0B37" stroke-width="2"/>
<path d="M219.452 62.5483L218.773 61.8686C217.424 60.5196 215.237 60.5196 213.888 61.8686L212.528 63.2279C211.179 64.5769 208.992 64.5769 207.643 63.2279L206.284 61.8686C204.935 60.5196 202.748 60.5196 201.399 61.8686L200.039 63.2279C198.69 64.5769 196.503 64.5769 195.154 63.2279L194.475 62.5483" stroke="#FF0B37" stroke-width="2"/>
<path d="M224.634 51.1223L223.954 51.8019C222.605 53.1509 220.418 53.1509 219.069 51.8019L217.71 50.4427C216.361 49.0936 214.174 49.0936 212.825 50.4427L211.466 51.8019C210.117 53.1509 207.929 53.1509 206.58 51.8019L205.221 50.4427C203.872 49.0936 201.685 49.0936 200.336 50.4427L198.977 51.8019C197.628 53.1509 195.44 53.1509 194.091 51.8019L192.732 50.4427C191.383 49.0936 189.196 49.0936 187.847 50.4427L186.488 51.8019C185.139 53.1509 182.951 53.1509 181.602 51.8019L180.923 51.1223" stroke="#FF0B37" stroke-width="2"/>
<path d="M280.933 51.1222L280.253 50.4426C278.904 49.0936 276.717 49.0936 275.368 50.4426L274.009 51.8018C272.659 53.1509 270.472 53.1509 269.123 51.8018L267.764 50.4426C266.415 49.0936 264.228 49.0936 262.879 50.4426L261.52 51.8018C260.171 53.1509 257.983 53.1509 256.634 51.8018L255.275 50.4426C253.926 49.0936 251.739 49.0936 250.39 50.4426L249.031 51.8018C247.682 53.1509 245.494 53.1509 244.145 51.8018L242.786 50.4426C241.437 49.0936 239.25 49.0936 237.901 50.4426L236.542 51.8018C235.193 53.1509 233.006 53.1509 231.656 51.8018L230.297 50.4426C228.948 49.0936 226.761 49.0936 225.412 50.4426L224.732 51.1222" stroke="#FF0B37" stroke-width="2"/>
<path d="M318.399 56.9681L317.72 56.2884C316.371 54.9394 314.184 54.9394 312.835 56.2884L311.475 57.6477C310.126 58.9967 307.939 58.9967 306.59 57.6477L305.231 56.2884C303.882 54.9394 301.695 54.9394 300.346 56.2884L298.986 57.6477C297.637 58.9967 295.45 58.9967 294.101 57.6477L292.742 56.2884C291.393 54.9394 289.206 54.9394 287.857 56.2884L286.497 57.6477C285.148 58.9967 282.961 58.9967 281.612 57.6477L280.253 56.2884C278.904 54.9394 276.717 54.9394 275.368 56.2884L274.009 57.6477C272.66 58.9967 270.472 58.9967 269.123 57.6477L267.764 56.2884C266.415 54.9394 264.228 54.9394 262.879 56.2884L262.199 56.9681" stroke="#FF0B37" stroke-width="2"/>
<path d="M281.066 62.5483L280.386 61.8686C279.037 60.5196 276.85 60.5196 275.501 61.8686L274.142 63.2279C272.793 64.5769 270.605 64.5769 269.256 63.2279L267.897 61.8686C266.548 60.5196 264.361 60.5196 263.012 61.8686L261.653 63.2279C260.304 64.5769 258.117 64.5769 256.768 63.2279L256.088 62.5483" stroke="#FF0B37" stroke-width="2"/>
<path d="M256.087 56.9681L255.408 56.2884C254.059 54.9394 251.871 54.9394 250.522 56.2884L249.163 57.6477C247.814 58.9967 245.627 58.9967 244.278 57.6477L242.919 56.2884C241.57 54.9394 239.382 54.9394 238.033 56.2884L236.674 57.6477C235.325 58.9967 233.138 58.9967 231.789 57.6477L231.109 56.9681" stroke="#FF0B37" stroke-width="2"/>
<path d="M331.819 62.5483L331.139 61.8686C329.79 60.5196 327.603 60.5196 326.254 61.8686L324.895 63.2279C323.546 64.5769 321.358 64.5769 320.009 63.2279L318.65 61.8686C317.301 60.5196 315.114 60.5196 313.765 61.8686L312.406 63.2279C311.057 64.5769 308.869 64.5769 307.52 63.2279L306.841 62.5483" stroke="#FF0B37" stroke-width="2"/>
<path d="M337 51.1223L336.321 51.8019C334.972 53.1509 332.784 53.1509 331.435 51.8019L330.076 50.4427C328.727 49.0936 326.54 49.0936 325.191 50.4427L323.832 51.8019C322.483 53.1509 320.296 53.1509 318.947 51.8019L317.587 50.4427C316.238 49.0936 314.051 49.0936 312.702 50.4427L311.343 51.8019C309.994 53.1509 307.807 53.1509 306.458 51.8019L305.098 50.4427C303.749 49.0936 301.562 49.0936 300.213 50.4427L298.854 51.8019C297.505 53.1509 295.318 53.1509 293.969 51.8019L293.289 51.1223" stroke="#FF0B37" stroke-width="2"/>
</g>
<defs>
<clipPath id="clip0_418_9992">
<rect width="359" height="109" fill="white"/>
</clipPath>
</defs>
</svg>
