<svg width="215" height="42" viewBox="0 0 215 42" fill="none" xmlns="http://www.w3.org/2000/svg">
<circle cx="131.828" cy="20.6218" r="12.6965" fill="#FF0B37"/>
<mask id="path-2-outside-1_503_5238" maskUnits="userSpaceOnUse" x="0" y="1.38513" width="215" height="41" fill="black">
<rect fill="white" y="1.38513" width="215" height="41"/>
<path d="M1 32.549H4.44729V2.38513H1V32.549ZM20.5634 2.38513L7.63604 17.467L20.5634 32.549H24.7001L11.7728 17.467L24.7001 2.38513H20.5634Z"/>
<path d="M44.2948 32.549H47.7421V11.0034H44.2948V32.549ZM36.323 29.748C33.9099 29.748 31.9708 29.0155 30.5057 27.5504C29.0693 26.114 28.3511 24.1893 28.3511 21.7762C28.3511 19.3631 29.0693 17.424 30.5057 15.9589C31.9708 14.5225 33.9099 13.8043 36.323 13.8043C38.7361 13.8043 40.6752 14.5225 42.1403 15.9589C43.5767 17.424 44.2948 19.3631 44.2948 21.7762C44.2948 24.1893 43.5767 26.114 42.1403 27.5504C40.6752 29.0155 38.7361 29.748 36.323 29.748ZM35.2457 10.5725C32.1144 10.5725 29.6008 11.5923 27.7047 13.6319C25.8375 15.6716 24.9038 18.3863 24.9038 21.7762C24.9038 25.166 25.8375 27.8807 27.7047 29.9204C29.6008 31.96 32.1144 32.9799 35.2457 32.9799C38.3195 32.9799 40.6895 31.96 42.3557 29.9204C43.9358 27.9669 44.7258 25.2522 44.7258 21.7762C44.7258 18.3001 43.9358 15.5854 42.3557 13.6319C40.6895 11.5923 38.3195 10.5725 35.2457 10.5725Z"/>
<path d="M57.207 25.8267C57.5805 27.4355 58.2269 28.8 59.1461 29.9204C60.8123 31.96 63.1824 32.9799 66.2562 32.9799C69.3875 32.9799 71.9011 31.96 73.7971 29.9204C75.6644 27.8807 76.5981 25.166 76.5981 21.7762C76.5981 18.3863 75.6644 15.6716 73.7971 13.6319C71.9011 11.5923 69.3875 10.5725 66.2562 10.5725C63.1824 10.5725 60.8123 11.5923 59.1461 13.6319C58.2269 14.7523 57.5805 16.1169 57.207 17.7256V11.0034H53.7598V41.1672H57.207V25.8267ZM65.1789 29.748C62.7658 29.748 60.8267 29.0155 59.3616 27.5504C57.9252 26.114 57.207 24.1893 57.207 21.7762C57.207 19.3631 57.9252 17.424 59.3616 15.9589C60.8267 14.5225 62.7658 13.8043 65.1789 13.8043C67.592 13.8043 69.5311 14.5225 70.9962 15.9589C72.4326 17.424 73.1508 19.3631 73.1508 21.7762C73.1508 24.1893 72.4326 26.114 70.9962 27.5504C69.5311 29.0155 67.592 29.748 65.1789 29.748Z"/>
<path d="M91.4494 13.8043C93.5752 13.8043 95.3419 14.3788 96.7496 15.5279C98.1285 16.6483 98.976 18.1852 99.292 20.1387H83.6068C83.9228 18.1852 84.7702 16.6483 86.1492 15.5279C87.5568 14.3788 89.3235 13.8043 91.4494 13.8043ZM91.4494 10.5725C88.0021 10.5725 85.2299 11.5923 83.1328 13.6319C81.0644 15.6716 80.0302 18.3863 80.0302 21.7762C80.0302 25.166 81.0644 27.8807 83.1328 29.9204C85.2299 31.96 88.0021 32.9799 91.4494 32.9799C94.0061 32.9799 96.2181 32.391 98.0854 31.2131C99.924 30.064 101.245 28.4553 102.05 26.3869H98.1716C96.764 28.6277 94.5232 29.748 91.4494 29.748C89.3235 29.748 87.5568 29.1735 86.1492 28.0244C84.7702 26.904 83.9228 25.3527 83.6068 23.3705H102.739L102.825 22.5949L102.869 21.7762C102.869 18.3863 101.834 15.6716 99.766 13.6319C97.6689 11.5923 94.8967 10.5725 91.4494 10.5725Z"/>
<path d="M161.858 11.0034V22.9396C159.905 23.744 157.894 24.1462 155.825 24.1462C153.843 24.1462 152.421 23.6578 151.559 22.6811C150.669 21.7043 150.223 20.11 150.223 17.898V11.0034H146.776V18.3289C146.776 24.3616 149.792 27.378 155.825 27.378C157.865 27.378 159.876 26.9902 161.858 26.2146V32.549H165.305V11.0034H161.858Z"/>
<path d="M176.07 20.4834L186.282 32.549H190.29L180.077 20.4834H176.07ZM189.859 10.5725C185.952 10.5725 182.634 11.6641 179.905 13.8474C177.262 15.9445 175.553 18.7167 174.777 22.164V11.0034H171.33V32.549H174.777V26.0853C174.777 22.2933 176.07 19.32 178.655 17.1654C181.327 14.9247 185.061 13.8043 189.859 13.8043V10.5725Z"/>
<path d="M210.553 32.549H214V11.0034H210.553V32.549ZM202.581 29.748C200.168 29.748 198.229 29.0155 196.764 27.5504C195.327 26.114 194.609 24.1893 194.609 21.7762C194.609 19.3631 195.327 17.424 196.764 15.9589C198.229 14.5225 200.168 13.8043 202.581 13.8043C204.994 13.8043 206.933 14.5225 208.398 15.9589C209.835 17.424 210.553 19.3631 210.553 21.7762C210.553 24.1893 209.835 26.114 208.398 27.5504C206.933 29.0155 204.994 29.748 202.581 29.748ZM201.504 10.5725C198.372 10.5725 195.859 11.5923 193.963 13.6319C192.095 15.6716 191.162 18.3863 191.162 21.7762C191.162 25.166 192.095 27.8807 193.963 29.9204C195.859 31.96 198.372 32.9799 201.504 32.9799C204.577 32.9799 206.947 31.96 208.614 29.9204C210.194 27.9669 210.984 25.2522 210.984 21.7762C210.984 18.3001 210.194 15.5854 208.614 13.6319C206.947 11.5923 204.577 10.5725 201.504 10.5725Z"/>
</mask>
<path d="M1 32.549H4.44729V2.38513H1V32.549ZM20.5634 2.38513L7.63604 17.467L20.5634 32.549H24.7001L11.7728 17.467L24.7001 2.38513H20.5634Z" fill="#2E3035"/>
<path d="M44.2948 32.549H47.7421V11.0034H44.2948V32.549ZM36.323 29.748C33.9099 29.748 31.9708 29.0155 30.5057 27.5504C29.0693 26.114 28.3511 24.1893 28.3511 21.7762C28.3511 19.3631 29.0693 17.424 30.5057 15.9589C31.9708 14.5225 33.9099 13.8043 36.323 13.8043C38.7361 13.8043 40.6752 14.5225 42.1403 15.9589C43.5767 17.424 44.2948 19.3631 44.2948 21.7762C44.2948 24.1893 43.5767 26.114 42.1403 27.5504C40.6752 29.0155 38.7361 29.748 36.323 29.748ZM35.2457 10.5725C32.1144 10.5725 29.6008 11.5923 27.7047 13.6319C25.8375 15.6716 24.9038 18.3863 24.9038 21.7762C24.9038 25.166 25.8375 27.8807 27.7047 29.9204C29.6008 31.96 32.1144 32.9799 35.2457 32.9799C38.3195 32.9799 40.6895 31.96 42.3557 29.9204C43.9358 27.9669 44.7258 25.2522 44.7258 21.7762C44.7258 18.3001 43.9358 15.5854 42.3557 13.6319C40.6895 11.5923 38.3195 10.5725 35.2457 10.5725Z" fill="#2E3035"/>
<path d="M57.207 25.8267C57.5805 27.4355 58.2269 28.8 59.1461 29.9204C60.8123 31.96 63.1824 32.9799 66.2562 32.9799C69.3875 32.9799 71.9011 31.96 73.7971 29.9204C75.6644 27.8807 76.5981 25.166 76.5981 21.7762C76.5981 18.3863 75.6644 15.6716 73.7971 13.6319C71.9011 11.5923 69.3875 10.5725 66.2562 10.5725C63.1824 10.5725 60.8123 11.5923 59.1461 13.6319C58.2269 14.7523 57.5805 16.1169 57.207 17.7256V11.0034H53.7598V41.1672H57.207V25.8267ZM65.1789 29.748C62.7658 29.748 60.8267 29.0155 59.3616 27.5504C57.9252 26.114 57.207 24.1893 57.207 21.7762C57.207 19.3631 57.9252 17.424 59.3616 15.9589C60.8267 14.5225 62.7658 13.8043 65.1789 13.8043C67.592 13.8043 69.5311 14.5225 70.9962 15.9589C72.4326 17.424 73.1508 19.3631 73.1508 21.7762C73.1508 24.1893 72.4326 26.114 70.9962 27.5504C69.5311 29.0155 67.592 29.748 65.1789 29.748Z" fill="#2E3035"/>
<path d="M91.4494 13.8043C93.5752 13.8043 95.3419 14.3788 96.7496 15.5279C98.1285 16.6483 98.976 18.1852 99.292 20.1387H83.6068C83.9228 18.1852 84.7702 16.6483 86.1492 15.5279C87.5568 14.3788 89.3235 13.8043 91.4494 13.8043ZM91.4494 10.5725C88.0021 10.5725 85.2299 11.5923 83.1328 13.6319C81.0644 15.6716 80.0302 18.3863 80.0302 21.7762C80.0302 25.166 81.0644 27.8807 83.1328 29.9204C85.2299 31.96 88.0021 32.9799 91.4494 32.9799C94.0061 32.9799 96.2181 32.391 98.0854 31.2131C99.924 30.064 101.245 28.4553 102.05 26.3869H98.1716C96.764 28.6277 94.5232 29.748 91.4494 29.748C89.3235 29.748 87.5568 29.1735 86.1492 28.0244C84.7702 26.904 83.9228 25.3527 83.6068 23.3705H102.739L102.825 22.5949L102.869 21.7762C102.869 18.3863 101.834 15.6716 99.766 13.6319C97.6689 11.5923 94.8967 10.5725 91.4494 10.5725Z" fill="#2E3035"/>
<path d="M161.858 11.0034V22.9396C159.905 23.744 157.894 24.1462 155.825 24.1462C153.843 24.1462 152.421 23.6578 151.559 22.6811C150.669 21.7043 150.223 20.11 150.223 17.898V11.0034H146.776V18.3289C146.776 24.3616 149.792 27.378 155.825 27.378C157.865 27.378 159.876 26.9902 161.858 26.2146V32.549H165.305V11.0034H161.858Z" fill="#2E3035"/>
<path d="M176.07 20.4834L186.282 32.549H190.29L180.077 20.4834H176.07ZM189.859 10.5725C185.952 10.5725 182.634 11.6641 179.905 13.8474C177.262 15.9445 175.553 18.7167 174.777 22.164V11.0034H171.33V32.549H174.777V26.0853C174.777 22.2933 176.07 19.32 178.655 17.1654C181.327 14.9247 185.061 13.8043 189.859 13.8043V10.5725Z" fill="#2E3035"/>
<path d="M210.553 32.549H214V11.0034H210.553V32.549ZM202.581 29.748C200.168 29.748 198.229 29.0155 196.764 27.5504C195.327 26.114 194.609 24.1893 194.609 21.7762C194.609 19.3631 195.327 17.424 196.764 15.9589C198.229 14.5225 200.168 13.8043 202.581 13.8043C204.994 13.8043 206.933 14.5225 208.398 15.9589C209.835 17.424 210.553 19.3631 210.553 21.7762C210.553 24.1893 209.835 26.114 208.398 27.5504C206.933 29.0155 204.994 29.748 202.581 29.748ZM201.504 10.5725C198.372 10.5725 195.859 11.5923 193.963 13.6319C192.095 15.6716 191.162 18.3863 191.162 21.7762C191.162 25.166 192.095 27.8807 193.963 29.9204C195.859 31.96 198.372 32.9799 201.504 32.9799C204.577 32.9799 206.947 31.96 208.614 29.9204C210.194 27.9669 210.984 25.2522 210.984 21.7762C210.984 18.3001 210.194 15.5854 208.614 13.6319C206.947 11.5923 204.577 10.5725 201.504 10.5725Z" fill="#2E3035"/>
<path d="M1 32.549H4.44729V2.38513H1V32.549ZM20.5634 2.38513L7.63604 17.467L20.5634 32.549H24.7001L11.7728 17.467L24.7001 2.38513H20.5634Z" stroke="#2E3035" stroke-width="1.53897" mask="url(#path-2-outside-1_503_5238)"/>
<path d="M44.2948 32.549H47.7421V11.0034H44.2948V32.549ZM36.323 29.748C33.9099 29.748 31.9708 29.0155 30.5057 27.5504C29.0693 26.114 28.3511 24.1893 28.3511 21.7762C28.3511 19.3631 29.0693 17.424 30.5057 15.9589C31.9708 14.5225 33.9099 13.8043 36.323 13.8043C38.7361 13.8043 40.6752 14.5225 42.1403 15.9589C43.5767 17.424 44.2948 19.3631 44.2948 21.7762C44.2948 24.1893 43.5767 26.114 42.1403 27.5504C40.6752 29.0155 38.7361 29.748 36.323 29.748ZM35.2457 10.5725C32.1144 10.5725 29.6008 11.5923 27.7047 13.6319C25.8375 15.6716 24.9038 18.3863 24.9038 21.7762C24.9038 25.166 25.8375 27.8807 27.7047 29.9204C29.6008 31.96 32.1144 32.9799 35.2457 32.9799C38.3195 32.9799 40.6895 31.96 42.3557 29.9204C43.9358 27.9669 44.7258 25.2522 44.7258 21.7762C44.7258 18.3001 43.9358 15.5854 42.3557 13.6319C40.6895 11.5923 38.3195 10.5725 35.2457 10.5725Z" stroke="#2E3035" stroke-width="1.53897" mask="url(#path-2-outside-1_503_5238)"/>
<path d="M57.207 25.8267C57.5805 27.4355 58.2269 28.8 59.1461 29.9204C60.8123 31.96 63.1824 32.9799 66.2562 32.9799C69.3875 32.9799 71.9011 31.96 73.7971 29.9204C75.6644 27.8807 76.5981 25.166 76.5981 21.7762C76.5981 18.3863 75.6644 15.6716 73.7971 13.6319C71.9011 11.5923 69.3875 10.5725 66.2562 10.5725C63.1824 10.5725 60.8123 11.5923 59.1461 13.6319C58.2269 14.7523 57.5805 16.1169 57.207 17.7256V11.0034H53.7598V41.1672H57.207V25.8267ZM65.1789 29.748C62.7658 29.748 60.8267 29.0155 59.3616 27.5504C57.9252 26.114 57.207 24.1893 57.207 21.7762C57.207 19.3631 57.9252 17.424 59.3616 15.9589C60.8267 14.5225 62.7658 13.8043 65.1789 13.8043C67.592 13.8043 69.5311 14.5225 70.9962 15.9589C72.4326 17.424 73.1508 19.3631 73.1508 21.7762C73.1508 24.1893 72.4326 26.114 70.9962 27.5504C69.5311 29.0155 67.592 29.748 65.1789 29.748Z" stroke="#2E3035" stroke-width="1.53897" mask="url(#path-2-outside-1_503_5238)"/>
<path d="M91.4494 13.8043C93.5752 13.8043 95.3419 14.3788 96.7496 15.5279C98.1285 16.6483 98.976 18.1852 99.292 20.1387H83.6068C83.9228 18.1852 84.7702 16.6483 86.1492 15.5279C87.5568 14.3788 89.3235 13.8043 91.4494 13.8043ZM91.4494 10.5725C88.0021 10.5725 85.2299 11.5923 83.1328 13.6319C81.0644 15.6716 80.0302 18.3863 80.0302 21.7762C80.0302 25.166 81.0644 27.8807 83.1328 29.9204C85.2299 31.96 88.0021 32.9799 91.4494 32.9799C94.0061 32.9799 96.2181 32.391 98.0854 31.2131C99.924 30.064 101.245 28.4553 102.05 26.3869H98.1716C96.764 28.6277 94.5232 29.748 91.4494 29.748C89.3235 29.748 87.5568 29.1735 86.1492 28.0244C84.7702 26.904 83.9228 25.3527 83.6068 23.3705H102.739L102.825 22.5949L102.869 21.7762C102.869 18.3863 101.834 15.6716 99.766 13.6319C97.6689 11.5923 94.8967 10.5725 91.4494 10.5725Z" stroke="#2E3035" stroke-width="1.53897" mask="url(#path-2-outside-1_503_5238)"/>
<path d="M161.858 11.0034V22.9396C159.905 23.744 157.894 24.1462 155.825 24.1462C153.843 24.1462 152.421 23.6578 151.559 22.6811C150.669 21.7043 150.223 20.11 150.223 17.898V11.0034H146.776V18.3289C146.776 24.3616 149.792 27.378 155.825 27.378C157.865 27.378 159.876 26.9902 161.858 26.2146V32.549H165.305V11.0034H161.858Z" stroke="#2E3035" stroke-width="1.53897" mask="url(#path-2-outside-1_503_5238)"/>
<path d="M176.07 20.4834L186.282 32.549H190.29L180.077 20.4834H176.07ZM189.859 10.5725C185.952 10.5725 182.634 11.6641 179.905 13.8474C177.262 15.9445 175.553 18.7167 174.777 22.164V11.0034H171.33V32.549H174.777V26.0853C174.777 22.2933 176.07 19.32 178.655 17.1654C181.327 14.9247 185.061 13.8043 189.859 13.8043V10.5725Z" stroke="#2E3035" stroke-width="1.53897" mask="url(#path-2-outside-1_503_5238)"/>
<path d="M210.553 32.549H214V11.0034H210.553V32.549ZM202.581 29.748C200.168 29.748 198.229 29.0155 196.764 27.5504C195.327 26.114 194.609 24.1893 194.609 21.7762C194.609 19.3631 195.327 17.424 196.764 15.9589C198.229 14.5225 200.168 13.8043 202.581 13.8043C204.994 13.8043 206.933 14.5225 208.398 15.9589C209.835 17.424 210.553 19.3631 210.553 21.7762C210.553 24.1893 209.835 26.114 208.398 27.5504C206.933 29.0155 204.994 29.748 202.581 29.748ZM201.504 10.5725C198.372 10.5725 195.859 11.5923 193.963 13.6319C192.095 15.6716 191.162 18.3863 191.162 21.7762C191.162 25.166 192.095 27.8807 193.963 29.9204C195.859 31.96 198.372 32.9799 201.504 32.9799C204.577 32.9799 206.947 31.96 208.614 29.9204C210.194 27.9669 210.984 25.2522 210.984 21.7762C210.984 18.3001 210.194 15.5854 208.614 13.6319C206.947 11.5923 204.577 10.5725 201.504 10.5725Z" stroke="#2E3035" stroke-width="1.53897" mask="url(#path-2-outside-1_503_5238)"/>
<path d="M128.118 40.6285H128.71L128.47 40.0875L114.681 9.06188L114.329 8.27082L113.978 9.06188L100.188 40.0875L99.948 40.6285H100.54H104.203H104.453L104.554 40.4L114.329 18.3962L124.104 40.4L124.205 40.6285H124.456H128.118Z" fill="#2E3035" stroke="#2E3035" stroke-width="0.769485"/>
<path d="M110.282 19.4676L118.362 1" stroke="#2E3035" stroke-width="2.30846"/>
<path d="M118.362 19.4676L110.282 1" stroke="#2E3035" stroke-width="2.30846"/>
</svg>
