<svg width="216" height="42" viewBox="0 0 216 42" fill="none" xmlns="http://www.w3.org/2000/svg">
<circle cx="132.328" cy="20.6218" r="12.6965" fill="#FF0B37"/>
<mask id="path-2-outside-1_627_5693" maskUnits="userSpaceOnUse" x="0.5" y="1.38525" width="215" height="41" fill="black">
<rect fill="white" x="0.5" y="1.38525" width="215" height="41"/>
<path d="M1.5 32.5491H4.94729V2.38525H1.5V32.5491ZM21.0634 2.38525L8.13604 17.4672L21.0634 32.5491H25.2001L12.2728 17.4672L25.2001 2.38525H21.0634Z"/>
<path d="M44.7948 32.5491H48.2421V11.0035H44.7948V32.5491ZM36.823 29.7481C34.4099 29.7481 32.4708 29.0156 31.0057 27.5505C29.5693 26.1141 28.8511 24.1894 28.8511 21.7763C28.8511 19.3632 29.5693 17.4241 31.0057 15.959C32.4708 14.5226 34.4099 13.8044 36.823 13.8044C39.2361 13.8044 41.1752 14.5226 42.6403 15.959C44.0767 17.4241 44.7948 19.3632 44.7948 21.7763C44.7948 24.1894 44.0767 26.1141 42.6403 27.5505C41.1752 29.0156 39.2361 29.7481 36.823 29.7481ZM35.7457 10.5726C32.6144 10.5726 30.1008 11.5924 28.2047 13.6321C26.3375 15.6717 25.4038 18.3864 25.4038 21.7763C25.4038 25.1661 26.3375 27.8809 28.2047 29.9205C30.1008 31.9602 32.6144 32.98 35.7457 32.98C38.8195 32.98 41.1895 31.9602 42.8557 29.9205C44.4358 27.967 45.2258 25.2523 45.2258 21.7763C45.2258 18.3003 44.4358 15.5855 42.8557 13.6321C41.1895 11.5924 38.8195 10.5726 35.7457 10.5726Z"/>
<path d="M57.707 25.8269C58.0805 27.4356 58.7269 28.8001 59.6461 29.9205C61.3123 31.9602 63.6824 32.98 66.7562 32.98C69.8875 32.98 72.4011 31.9602 74.2971 29.9205C76.1644 27.8809 77.0981 25.1661 77.0981 21.7763C77.0981 18.3864 76.1644 15.6717 74.2971 13.6321C72.4011 11.5924 69.8875 10.5726 66.7562 10.5726C63.6824 10.5726 61.3123 11.5924 59.6461 13.6321C58.7269 14.7524 58.0805 16.117 57.707 17.7257V11.0035H54.2598V41.1673H57.707V25.8269ZM65.6789 29.7481C63.2658 29.7481 61.3267 29.0156 59.8616 27.5505C58.4252 26.1141 57.707 24.1894 57.707 21.7763C57.707 19.3632 58.4252 17.4241 59.8616 15.959C61.3267 14.5226 63.2658 13.8044 65.6789 13.8044C68.092 13.8044 70.0311 14.5226 71.4962 15.959C72.9326 17.4241 73.6508 19.3632 73.6508 21.7763C73.6508 24.1894 72.9326 26.1141 71.4962 27.5505C70.0311 29.0156 68.092 29.7481 65.6789 29.7481Z"/>
<path d="M91.9494 13.8044C94.0752 13.8044 95.8419 14.379 97.2496 15.5281C98.6285 16.6484 99.476 18.1854 99.792 20.1388H84.1068C84.4228 18.1854 85.2702 16.6484 86.6492 15.5281C88.0568 14.379 89.8235 13.8044 91.9494 13.8044ZM91.9494 10.5726C88.5021 10.5726 85.7299 11.5924 83.6328 13.6321C81.5644 15.6717 80.5302 18.3864 80.5302 21.7763C80.5302 25.1661 81.5644 27.8809 83.6328 29.9205C85.7299 31.9602 88.5021 32.98 91.9494 32.98C94.5061 32.98 96.7181 32.3911 98.5854 31.2132C100.424 30.0641 101.745 28.4554 102.55 26.387H98.6716C97.264 28.6278 95.0232 29.7481 91.9494 29.7481C89.8235 29.7481 88.0568 29.1736 86.6492 28.0245C85.2702 26.9041 84.4228 25.3528 84.1068 23.3707H103.239L103.325 22.595L103.369 21.7763C103.369 18.3864 102.334 15.6717 100.266 13.6321C98.1689 11.5924 95.3967 10.5726 91.9494 10.5726Z"/>
<path d="M162.358 11.0035V22.9397C160.405 23.7441 158.394 24.1463 156.325 24.1463C154.343 24.1463 152.921 23.6579 152.059 22.6812C151.169 21.7045 150.723 20.1101 150.723 17.8981V11.0035H147.276V18.329C147.276 24.3618 150.292 27.3781 156.325 27.3781C158.365 27.3781 160.376 26.9903 162.358 26.2147V32.5491H165.805V11.0035H162.358Z"/>
<path d="M176.57 20.4835L186.782 32.5491H190.79L180.577 20.4835H176.57ZM190.359 10.5726C186.452 10.5726 183.134 11.6642 180.405 13.8475C177.762 15.9446 176.053 18.7168 175.277 22.1641V11.0035H171.83V32.5491H175.277V26.0854C175.277 22.2934 176.57 19.3201 179.155 17.1655C181.827 14.9248 185.561 13.8044 190.359 13.8044V10.5726Z"/>
<path d="M211.053 32.5491H214.5V11.0035H211.053V32.5491ZM203.081 29.7481C200.668 29.7481 198.729 29.0156 197.264 27.5505C195.827 26.1141 195.109 24.1894 195.109 21.7763C195.109 19.3632 195.827 17.4241 197.264 15.959C198.729 14.5226 200.668 13.8044 203.081 13.8044C205.494 13.8044 207.433 14.5226 208.898 15.959C210.335 17.4241 211.053 19.3632 211.053 21.7763C211.053 24.1894 210.335 26.1141 208.898 27.5505C207.433 29.0156 205.494 29.7481 203.081 29.7481ZM202.004 10.5726C198.872 10.5726 196.359 11.5924 194.463 13.6321C192.595 15.6717 191.662 18.3864 191.662 21.7763C191.662 25.1661 192.595 27.8809 194.463 29.9205C196.359 31.9602 198.872 32.98 202.004 32.98C205.077 32.98 207.447 31.9602 209.114 29.9205C210.694 27.967 211.484 25.2523 211.484 21.7763C211.484 18.3003 210.694 15.5855 209.114 13.6321C207.447 11.5924 205.077 10.5726 202.004 10.5726Z"/>
</mask>
<path d="M1.5 32.5491H4.94729V2.38525H1.5V32.5491ZM21.0634 2.38525L8.13604 17.4672L21.0634 32.5491H25.2001L12.2728 17.4672L25.2001 2.38525H21.0634Z" fill="white"/>
<path d="M44.7948 32.5491H48.2421V11.0035H44.7948V32.5491ZM36.823 29.7481C34.4099 29.7481 32.4708 29.0156 31.0057 27.5505C29.5693 26.1141 28.8511 24.1894 28.8511 21.7763C28.8511 19.3632 29.5693 17.4241 31.0057 15.959C32.4708 14.5226 34.4099 13.8044 36.823 13.8044C39.2361 13.8044 41.1752 14.5226 42.6403 15.959C44.0767 17.4241 44.7948 19.3632 44.7948 21.7763C44.7948 24.1894 44.0767 26.1141 42.6403 27.5505C41.1752 29.0156 39.2361 29.7481 36.823 29.7481ZM35.7457 10.5726C32.6144 10.5726 30.1008 11.5924 28.2047 13.6321C26.3375 15.6717 25.4038 18.3864 25.4038 21.7763C25.4038 25.1661 26.3375 27.8809 28.2047 29.9205C30.1008 31.9602 32.6144 32.98 35.7457 32.98C38.8195 32.98 41.1895 31.9602 42.8557 29.9205C44.4358 27.967 45.2258 25.2523 45.2258 21.7763C45.2258 18.3003 44.4358 15.5855 42.8557 13.6321C41.1895 11.5924 38.8195 10.5726 35.7457 10.5726Z" fill="white"/>
<path d="M57.707 25.8269C58.0805 27.4356 58.7269 28.8001 59.6461 29.9205C61.3123 31.9602 63.6824 32.98 66.7562 32.98C69.8875 32.98 72.4011 31.9602 74.2971 29.9205C76.1644 27.8809 77.0981 25.1661 77.0981 21.7763C77.0981 18.3864 76.1644 15.6717 74.2971 13.6321C72.4011 11.5924 69.8875 10.5726 66.7562 10.5726C63.6824 10.5726 61.3123 11.5924 59.6461 13.6321C58.7269 14.7524 58.0805 16.117 57.707 17.7257V11.0035H54.2598V41.1673H57.707V25.8269ZM65.6789 29.7481C63.2658 29.7481 61.3267 29.0156 59.8616 27.5505C58.4252 26.1141 57.707 24.1894 57.707 21.7763C57.707 19.3632 58.4252 17.4241 59.8616 15.959C61.3267 14.5226 63.2658 13.8044 65.6789 13.8044C68.092 13.8044 70.0311 14.5226 71.4962 15.959C72.9326 17.4241 73.6508 19.3632 73.6508 21.7763C73.6508 24.1894 72.9326 26.1141 71.4962 27.5505C70.0311 29.0156 68.092 29.7481 65.6789 29.7481Z" fill="white"/>
<path d="M91.9494 13.8044C94.0752 13.8044 95.8419 14.379 97.2496 15.5281C98.6285 16.6484 99.476 18.1854 99.792 20.1388H84.1068C84.4228 18.1854 85.2702 16.6484 86.6492 15.5281C88.0568 14.379 89.8235 13.8044 91.9494 13.8044ZM91.9494 10.5726C88.5021 10.5726 85.7299 11.5924 83.6328 13.6321C81.5644 15.6717 80.5302 18.3864 80.5302 21.7763C80.5302 25.1661 81.5644 27.8809 83.6328 29.9205C85.7299 31.9602 88.5021 32.98 91.9494 32.98C94.5061 32.98 96.7181 32.3911 98.5854 31.2132C100.424 30.0641 101.745 28.4554 102.55 26.387H98.6716C97.264 28.6278 95.0232 29.7481 91.9494 29.7481C89.8235 29.7481 88.0568 29.1736 86.6492 28.0245C85.2702 26.9041 84.4228 25.3528 84.1068 23.3707H103.239L103.325 22.595L103.369 21.7763C103.369 18.3864 102.334 15.6717 100.266 13.6321C98.1689 11.5924 95.3967 10.5726 91.9494 10.5726Z" fill="white"/>
<path d="M162.358 11.0035V22.9397C160.405 23.7441 158.394 24.1463 156.325 24.1463C154.343 24.1463 152.921 23.6579 152.059 22.6812C151.169 21.7045 150.723 20.1101 150.723 17.8981V11.0035H147.276V18.329C147.276 24.3618 150.292 27.3781 156.325 27.3781C158.365 27.3781 160.376 26.9903 162.358 26.2147V32.5491H165.805V11.0035H162.358Z" fill="white"/>
<path d="M176.57 20.4835L186.782 32.5491H190.79L180.577 20.4835H176.57ZM190.359 10.5726C186.452 10.5726 183.134 11.6642 180.405 13.8475C177.762 15.9446 176.053 18.7168 175.277 22.1641V11.0035H171.83V32.5491H175.277V26.0854C175.277 22.2934 176.57 19.3201 179.155 17.1655C181.827 14.9248 185.561 13.8044 190.359 13.8044V10.5726Z" fill="white"/>
<path d="M211.053 32.5491H214.5V11.0035H211.053V32.5491ZM203.081 29.7481C200.668 29.7481 198.729 29.0156 197.264 27.5505C195.827 26.1141 195.109 24.1894 195.109 21.7763C195.109 19.3632 195.827 17.4241 197.264 15.959C198.729 14.5226 200.668 13.8044 203.081 13.8044C205.494 13.8044 207.433 14.5226 208.898 15.959C210.335 17.4241 211.053 19.3632 211.053 21.7763C211.053 24.1894 210.335 26.1141 208.898 27.5505C207.433 29.0156 205.494 29.7481 203.081 29.7481ZM202.004 10.5726C198.872 10.5726 196.359 11.5924 194.463 13.6321C192.595 15.6717 191.662 18.3864 191.662 21.7763C191.662 25.1661 192.595 27.8809 194.463 29.9205C196.359 31.9602 198.872 32.98 202.004 32.98C205.077 32.98 207.447 31.9602 209.114 29.9205C210.694 27.967 211.484 25.2523 211.484 21.7763C211.484 18.3003 210.694 15.5855 209.114 13.6321C207.447 11.5924 205.077 10.5726 202.004 10.5726Z" fill="white"/>
<path d="M1.5 32.5491H4.94729V2.38525H1.5V32.5491ZM21.0634 2.38525L8.13604 17.4672L21.0634 32.5491H25.2001L12.2728 17.4672L25.2001 2.38525H21.0634Z" stroke="white" stroke-width="1.53897" mask="url(#path-2-outside-1_627_5693)"/>
<path d="M44.7948 32.5491H48.2421V11.0035H44.7948V32.5491ZM36.823 29.7481C34.4099 29.7481 32.4708 29.0156 31.0057 27.5505C29.5693 26.1141 28.8511 24.1894 28.8511 21.7763C28.8511 19.3632 29.5693 17.4241 31.0057 15.959C32.4708 14.5226 34.4099 13.8044 36.823 13.8044C39.2361 13.8044 41.1752 14.5226 42.6403 15.959C44.0767 17.4241 44.7948 19.3632 44.7948 21.7763C44.7948 24.1894 44.0767 26.1141 42.6403 27.5505C41.1752 29.0156 39.2361 29.7481 36.823 29.7481ZM35.7457 10.5726C32.6144 10.5726 30.1008 11.5924 28.2047 13.6321C26.3375 15.6717 25.4038 18.3864 25.4038 21.7763C25.4038 25.1661 26.3375 27.8809 28.2047 29.9205C30.1008 31.9602 32.6144 32.98 35.7457 32.98C38.8195 32.98 41.1895 31.9602 42.8557 29.9205C44.4358 27.967 45.2258 25.2523 45.2258 21.7763C45.2258 18.3003 44.4358 15.5855 42.8557 13.6321C41.1895 11.5924 38.8195 10.5726 35.7457 10.5726Z" stroke="white" stroke-width="1.53897" mask="url(#path-2-outside-1_627_5693)"/>
<path d="M57.707 25.8269C58.0805 27.4356 58.7269 28.8001 59.6461 29.9205C61.3123 31.9602 63.6824 32.98 66.7562 32.98C69.8875 32.98 72.4011 31.9602 74.2971 29.9205C76.1644 27.8809 77.0981 25.1661 77.0981 21.7763C77.0981 18.3864 76.1644 15.6717 74.2971 13.6321C72.4011 11.5924 69.8875 10.5726 66.7562 10.5726C63.6824 10.5726 61.3123 11.5924 59.6461 13.6321C58.7269 14.7524 58.0805 16.117 57.707 17.7257V11.0035H54.2598V41.1673H57.707V25.8269ZM65.6789 29.7481C63.2658 29.7481 61.3267 29.0156 59.8616 27.5505C58.4252 26.1141 57.707 24.1894 57.707 21.7763C57.707 19.3632 58.4252 17.4241 59.8616 15.959C61.3267 14.5226 63.2658 13.8044 65.6789 13.8044C68.092 13.8044 70.0311 14.5226 71.4962 15.959C72.9326 17.4241 73.6508 19.3632 73.6508 21.7763C73.6508 24.1894 72.9326 26.1141 71.4962 27.5505C70.0311 29.0156 68.092 29.7481 65.6789 29.7481Z" stroke="white" stroke-width="1.53897" mask="url(#path-2-outside-1_627_5693)"/>
<path d="M91.9494 13.8044C94.0752 13.8044 95.8419 14.379 97.2496 15.5281C98.6285 16.6484 99.476 18.1854 99.792 20.1388H84.1068C84.4228 18.1854 85.2702 16.6484 86.6492 15.5281C88.0568 14.379 89.8235 13.8044 91.9494 13.8044ZM91.9494 10.5726C88.5021 10.5726 85.7299 11.5924 83.6328 13.6321C81.5644 15.6717 80.5302 18.3864 80.5302 21.7763C80.5302 25.1661 81.5644 27.8809 83.6328 29.9205C85.7299 31.9602 88.5021 32.98 91.9494 32.98C94.5061 32.98 96.7181 32.3911 98.5854 31.2132C100.424 30.0641 101.745 28.4554 102.55 26.387H98.6716C97.264 28.6278 95.0232 29.7481 91.9494 29.7481C89.8235 29.7481 88.0568 29.1736 86.6492 28.0245C85.2702 26.9041 84.4228 25.3528 84.1068 23.3707H103.239L103.325 22.595L103.369 21.7763C103.369 18.3864 102.334 15.6717 100.266 13.6321C98.1689 11.5924 95.3967 10.5726 91.9494 10.5726Z" stroke="white" stroke-width="1.53897" mask="url(#path-2-outside-1_627_5693)"/>
<path d="M162.358 11.0035V22.9397C160.405 23.7441 158.394 24.1463 156.325 24.1463C154.343 24.1463 152.921 23.6579 152.059 22.6812C151.169 21.7045 150.723 20.1101 150.723 17.8981V11.0035H147.276V18.329C147.276 24.3618 150.292 27.3781 156.325 27.3781C158.365 27.3781 160.376 26.9903 162.358 26.2147V32.5491H165.805V11.0035H162.358Z" stroke="white" stroke-width="1.53897" mask="url(#path-2-outside-1_627_5693)"/>
<path d="M176.57 20.4835L186.782 32.5491H190.79L180.577 20.4835H176.57ZM190.359 10.5726C186.452 10.5726 183.134 11.6642 180.405 13.8475C177.762 15.9446 176.053 18.7168 175.277 22.1641V11.0035H171.83V32.5491H175.277V26.0854C175.277 22.2934 176.57 19.3201 179.155 17.1655C181.827 14.9248 185.561 13.8044 190.359 13.8044V10.5726Z" stroke="white" stroke-width="1.53897" mask="url(#path-2-outside-1_627_5693)"/>
<path d="M211.053 32.5491H214.5V11.0035H211.053V32.5491ZM203.081 29.7481C200.668 29.7481 198.729 29.0156 197.264 27.5505C195.827 26.1141 195.109 24.1894 195.109 21.7763C195.109 19.3632 195.827 17.4241 197.264 15.959C198.729 14.5226 200.668 13.8044 203.081 13.8044C205.494 13.8044 207.433 14.5226 208.898 15.959C210.335 17.4241 211.053 19.3632 211.053 21.7763C211.053 24.1894 210.335 26.1141 208.898 27.5505C207.433 29.0156 205.494 29.7481 203.081 29.7481ZM202.004 10.5726C198.872 10.5726 196.359 11.5924 194.463 13.6321C192.595 15.6717 191.662 18.3864 191.662 21.7763C191.662 25.1661 192.595 27.8809 194.463 29.9205C196.359 31.9602 198.872 32.98 202.004 32.98C205.077 32.98 207.447 31.9602 209.114 29.9205C210.694 27.967 211.484 25.2523 211.484 21.7763C211.484 18.3003 210.694 15.5855 209.114 13.6321C207.447 11.5924 205.077 10.5726 202.004 10.5726Z" stroke="white" stroke-width="1.53897" mask="url(#path-2-outside-1_627_5693)"/>
<path d="M128.618 40.6286H129.21L128.97 40.0876L115.181 9.062L114.829 8.27094L114.478 9.062L100.688 40.0876L100.448 40.6286H101.04H104.703H104.953L105.054 40.4001L114.829 18.3964L124.604 40.4001L124.705 40.6286H124.956H128.618Z" fill="white" stroke="white" stroke-width="0.769485"/>
<path d="M110.782 19.4676L118.862 1" stroke="white" stroke-width="2.30846"/>
<path d="M118.862 19.4676L110.782 1" stroke="white" stroke-width="2.30846"/>
</svg>
