<svg width="181" height="180" viewBox="0 0 181 180" fill="none" xmlns="http://www.w3.org/2000/svg">
<circle cx="47" cy="57" r="40" fill="#FF0B37"/>
<path d="M142.872 6V6C122.491 6 105.969 22.5219 105.969 42.9027V42.9027V42.9027C105.969 52.397 109.528 61.5463 115.944 68.545L126.177 79.7086C130.675 84.6158 133.877 90.5686 135.491 97.0267V97.0267M142.872 6V6C131.345 13.6849 124.421 26.6225 124.421 40.4767V44.6593C124.421 50.0285 125.079 55.3774 126.381 60.5862L135.491 97.0267M142.872 6V6C163.253 6 179.775 22.5219 179.775 42.9027V42.9027V42.9027C179.775 52.397 176.216 61.5463 169.8 68.545L159.567 79.7086C155.069 84.6158 151.867 90.5686 150.253 97.0267V97.0267M142.872 6V6C154.399 13.6849 161.323 26.6225 161.323 40.4767V44.6593C161.323 50.0285 160.665 55.3774 159.363 60.5862L150.253 97.0267M142.872 6V97.0267M135.491 104.407V97.0267M135.491 97.0267H142.872M142.872 97.0267H150.253M150.253 97.0267V104.407" stroke="#FF0B37" stroke-width="2"/>
<path d="M130.571 105.318H155.173V120.079C155.173 122.797 152.97 125 150.252 125H135.491C132.774 125 130.571 122.797 130.571 120.079V105.318Z" stroke="#FF0B37" stroke-width="2"/>
<path d="M51.1761 109.704C49.1298 109.704 47.2513 110.423 45.7789 111.621C44.2171 107.182 39.9873 104 35.0143 104C29.3301 104 24.6169 108.157 23.7489 113.597C23.393 113.538 23.0275 113.507 22.6549 113.507C18.9795 113.507 16 116.487 16 120.162C16 123.837 18.9795 126.817 22.6549 126.817C26.7409 126.817 30.8853 126.817 34.9993 126.817C35.0043 126.817 35.0093 126.817 35.0143 126.817C36.4988 126.817 52.1269 126.861 52.1269 126.765C54 126.558 55.6909 125.746 57 124.529" stroke="#FF0B37" stroke-width="2"/>
<path d="M111 151.162C111 147.486 113.98 144.507 117.655 144.507C118.028 144.507 118.393 144.537 118.749 144.596C119.617 139.157 124.33 135 130.014 135C134.987 135 139.217 138.182 140.779 142.621C142.251 141.423 144.13 140.704 146.176 140.704C150.902 140.704 154.732 144.535 154.732 149.261C154.732 153.665 151.405 157.292 147.127 157.765C147.127 157.842 132.807 157.833 124 157.823" stroke="#FF0B37" stroke-width="2"/>
<path d="M50.0203 75.7957V104.412C50.0203 120.662 63.1943 133.836 79.4453 133.836V133.836C95.6962 133.836 108.87 120.662 108.87 104.412V96.6049V80.8688C108.87 77.515 104.815 75.8354 102.444 78.2069V78.2069C98.0333 82.6173 98.0333 89.768 102.444 94.1784L106 97.7347M101 79.7906H65.6335C55.0207 79.7906 46.4172 71.1872 46.4172 60.5743V54.7884C46.4172 51.6051 50.266 50.0109 52.517 52.2618V52.2618C55.5324 55.2772 59.6221 56.9713 63.8866 56.9713H97.659C102.965 56.9713 107.267 61.273 107.267 66.5794V77.7855" stroke="#FF0B37" stroke-width="2"/>
<path d="M90.8549 131.435V137.44C90.8549 144.073 96.2321 149.45 102.865 149.45C115.206 149.45 125.875 156.609 130.945 167M69.2366 131.435V137.44C69.2366 144.073 63.8594 149.45 57.2264 149.45C48.3997 149.45 40.4284 153.112 34.749 159" stroke="#FF0B37" stroke-width="2"/>
<path d="M62.5 148L77.8155 155.439C79.1948 156.109 80.8052 156.109 82.1845 155.439L97.5 148" stroke="#FF0B37" stroke-width="2"/>
<path d="M55 150L75.24 159.715C78.249 161.16 81.751 161.16 84.76 159.715L105 150" stroke="#FF0B37" stroke-width="2" stroke-linecap="round"/>
<mask id="mask0_579_5524" style="mask-type:alpha" maskUnits="userSpaceOnUse" x="7" y="17" width="80" height="80">
<circle cx="47" cy="57" r="40" fill="#FF0B37"/>
</mask>
<g mask="url(#mask0_579_5524)">
<path d="M50.0203 71.5V104.412C50.0203 120.663 63.1943 133.836 79.4453 133.836V133.836C95.6962 133.836 108.87 120.662 108.87 104.412V96.6049M108.87 96.6049V76.8688C108.87 73.515 104.815 71.8354 102.444 74.2069V74.2069C98.0333 78.6173 98.0333 85.768 102.444 90.1785L108.87 96.6049ZM99 79.7906H65.6335C55.0207 79.7906 46.4172 71.1872 46.4172 60.5743V54.7884C46.4172 51.6051 50.266 50.0109 52.517 52.2618V52.2618C55.5324 55.2772 59.6221 56.9713 63.8866 56.9713H95.659C100.965 56.9713 105.267 61.273 105.267 66.5794V73.7855" stroke="white" stroke-width="2"/>
</g>
</svg>
