<svg width="180" height="180" viewBox="0 0 180 180" fill="none" xmlns="http://www.w3.org/2000/svg">
<circle cx="70" cy="40" r="40" fill="#FF0B37"/>
<path d="M37.4064 114.588L46.2454 117.063L46.0786 117.981C45.2739 122.407 46.0859 126.975 48.3668 130.852V130.852L40.3617 141.731C37.0355 146.251 37.51 152.523 41.4783 156.492L41.9097 156.923C42.4659 157.479 43.4169 157.085 43.4169 156.299V156.299C43.4169 151.423 47.3698 147.47 52.2458 147.47H53.3167V147.47C63.5164 147.47 72.4252 140.572 74.979 130.697L75.9447 126.963L83.0159 135.095L92.2085 137.57M40.942 104.335L40.345 107.917C39.4193 113.471 35.2874 117.947 29.825 119.312L28.9209 119.538L26.8835 118.138C24.526 116.517 21.7323 115.649 18.8714 115.649H16.9952C16.3957 115.649 16.0682 114.95 16.452 114.489L18.0546 112.566C18.4384 112.106 18.1109 111.406 17.5114 111.406H14.3261C12.1562 111.406 10.1064 110.41 8.76581 108.704L8.44572 108.297C7.68656 107.33 7.97006 105.914 9.04272 105.315L16.7991 100.98C18.1711 100.214 19.0211 98.7651 19.0211 97.1934V97.1934C19.0211 95.6976 19.7917 94.3073 21.0601 93.5146L27.5066 89.4855V87.8154C27.5066 86.8195 27.7249 85.8357 28.146 84.9333L29.7197 81.5611C29.8794 81.2188 30.223 81 30.6007 81V81C34.3594 81 37.4064 84.047 37.4064 87.8056V88.4248H74.1785C78.6489 88.4248 83.1122 88.7781 87.5269 89.4813L111.259 93.2617C117.551 94.2638 123.491 96.8268 128.537 100.716V100.716C134.585 105.378 139.093 111.749 141.478 119.003L143.397 124.839C145.322 130.696 146.304 136.822 146.304 142.988V160.198H127.918V160.198C127.918 158.05 129.66 156.309 131.808 156.309H135.343L129.736 150.702C126.535 147.501 124.736 143.158 124.736 138.631V138.631M127.918 130.852V130.852C127.918 134.99 125.648 138.795 122.007 140.76L115.304 144.378C109.139 147.705 104.621 153.429 102.815 160.198V160.198H83.0159V160.198C83.0159 158.05 84.7572 156.309 86.9051 156.309H89.7336L92.2085 137.57M92.2085 137.57L85.8624 141.433C79.5079 145.301 74.9329 151.517 73.1287 158.734L72.7626 160.198H53.3167V160.198C53.3167 158.05 55.0579 156.309 57.2059 156.309H60.3879L57.5594 146.763" stroke="#FF0B37" stroke-width="2"/>
<path d="M131.871 81.6869V104M131.871 81.6869H115.332C113.692 81.6869 112.533 80.0812 113.05 78.525L116.731 67.4444M131.871 81.6869H143.935M116.731 67.4444H125.247M116.731 67.4444H115.641C113.916 67.4444 112.753 65.6822 113.43 64.0962L119.097 50.8283M119.097 50.8283H123.372C126.498 50.8283 129.032 53.3626 129.032 56.4887V58.6546C129.032 62.4603 132.117 65.5455 135.923 65.5455V65.5455C137.797 65.5455 139.048 67.4772 138.281 69.1869L137.95 69.9257C136.599 72.9381 137.453 76.4827 140.027 78.5494L143.935 81.6869M119.097 50.8283L115.319 46.7219C114.321 45.6365 114.526 43.9162 115.752 43.0962L118.491 41.2638C118.886 40.9996 119.194 40.6242 119.376 40.1852L128.191 18.8901C129.466 15.8109 133.877 15.9605 134.94 19.119L153.332 73.7595C154.643 77.6544 151.745 81.6869 147.636 81.6869H143.935" stroke="#FF0B37" stroke-width="2"/>
<path d="M1 81L31.4645 50.5355C33.4171 48.5829 36.5829 48.5829 38.5355 50.5355L51.9645 63.9645C53.9171 65.9171 57.0829 65.9171 59.0355 63.9645L62.9645 60.0355C64.9171 58.0829 68.0829 58.0829 70.0355 60.0355L80.75 70.75C82.5449 72.5449 85.4551 72.5449 87.25 70.75V70.75C89.0449 68.9551 91.9551 68.9551 93.75 70.75V70.75C95.5449 72.5449 98.4551 72.5449 100.25 70.75L102.964 68.0355C104.917 66.0829 108.083 66.0829 110.036 68.0355L115 73M149.5 62L157.464 54.0355C159.417 52.0829 162.583 52.0829 164.536 54.0355L172.5 62" stroke="#FF0B37" stroke-width="2"/>
<path d="M55 39.1621C55 42.8375 57.9795 45.817 61.6549 45.817C71.074 45.817 80.4941 45.7658 89.9134 45.7811C94.6458 45.7889 98.5 41.9627 98.5 37.2303V37.0281C98.5 32.431 94.7733 28.7042 90.1761 28.7042C88.1298 28.7042 86.2513 29.4226 84.7789 30.6209C83.2171 26.1819 78.9873 23 74.0143 23C68.3301 23 63.6169 27.157 62.7489 32.5966C62.393 32.5377 62.0275 32.5071 61.6549 32.5071C57.9795 32.5071 55 35.4866 55 39.1621Z" stroke="#FF0B37" stroke-width="2"/>
<mask id="mask0_579_5553" style="mask-type:alpha" maskUnits="userSpaceOnUse" x="30" y="0" width="80" height="80">
<circle cx="70" cy="40" r="40" fill="#FF0B37"/>
</mask>
<g mask="url(#mask0_579_5553)">
<path d="M1 81L31.4645 50.5355C33.4171 48.5829 36.5829 48.5829 38.5355 50.5355L51.9645 63.9645C53.9171 65.9171 57.0829 65.9171 59.0355 63.9645L62.9645 60.0355C64.9171 58.0829 68.0829 58.0829 70.0355 60.0355L80.75 70.75C82.5449 72.5449 85.4551 72.5449 87.25 70.75V70.75C89.0449 68.9551 91.9551 68.9551 93.75 70.75V70.75C95.5449 72.5449 98.4551 72.5449 100.25 70.75L102.964 68.0355C104.917 66.0829 108.083 66.0829 110.036 68.0355L115 73M149.5 62L157.464 54.0355C159.417 52.0829 162.583 52.0829 164.536 54.0355L172.5 62" stroke="white" stroke-width="2"/>
<path d="M55 39.1621C55 42.8375 57.9795 45.817 61.6549 45.817C71.074 45.817 80.4941 45.7658 89.9134 45.7811C94.6458 45.7889 98.5 41.9627 98.5 37.2303V37.0281C98.5 32.431 94.7733 28.7042 90.1761 28.7042C88.1298 28.7042 86.2513 29.4226 84.7789 30.6209C83.2171 26.1819 78.9873 23 74.0143 23C68.3301 23 63.6169 27.157 62.7489 32.5966C62.393 32.5377 62.0275 32.5071 61.6549 32.5071C57.9795 32.5071 55 35.4866 55 39.1621Z" stroke="white" stroke-width="2"/>
</g>
</svg>
