<svg width="180" height="180" viewBox="0 0 180 180" fill="none" xmlns="http://www.w3.org/2000/svg">
<path d="M141.139 162.043L67.558 162.043C65.5649 162.043 63.6172 161.447 61.965 160.333L38 144.163M61.5 137.543L41.2544 123.8C36.9818 120.9 31.1668 122.012 28.2665 126.285V126.285C25.3603 130.566 26.4837 136.393 30.7731 139.288L38 144.163M38 144.163L38.3683 143.62C41.2033 139.434 40.1114 133.743 35.9286 130.903V130.903" stroke="#FF0B37" stroke-width="2"/>
<path d="M97.6392 143L82.6392 144.343M131.639 140.5L131.008 134.5M131.008 134.5V134.5C130.251 127.317 123.821 122.103 116.637 122.848L71.0522 127.576C66.1448 128.085 62.5964 132.501 63.1566 137.403V137.403C63.7031 142.185 67.9641 145.657 72.7578 145.228L82.6392 144.343M131.008 134.5L142.139 133.5M82.6392 144.343V144.343C82.084 139.434 77.6977 135.875 72.7796 136.344L71.1392 136.5" stroke="#FF0B37" stroke-width="2"/>
<path d="M53 96.5L47.7963 113.712C46.0336 119.543 47.0528 125.395 49.9469 130.048M53 96.5C50.2301 95.392 48.8683 92.2606 49.9469 89.4791L55.0243 76.3847C56.5166 72.5362 60.2202 70 64.3479 70H80M53 96.5C55.4384 97.5837 58.2855 96.3851 59.2146 93.8837L62.7895 84.2591C63.5172 82.2999 65.3867 81 67.4766 81H113.523C115.613 81 117.483 82.2999 118.211 84.2591L121.785 93.8837C122.714 96.3851 125.562 97.5837 128 96.5M80 70C83.4623 69.4229 86 66.4273 86 62.9172V62.5M80 70H101M86 62.5C84.067 62.5 82.5 60.933 82.5 59V58.5C82.5 56.567 84.067 55 86 55C87.933 55 89.5 56.567 89.5 58.5V59C89.5 60.933 87.933 62.5 86 62.5ZM128 96.5L133.204 113.712C135.089 119.948 133.792 126.209 130.423 131M128 96.5C130.77 95.392 132.132 92.2606 131.053 89.4791L125.976 76.3847C124.483 72.5362 120.78 70 116.652 70H101M101 70C97.5377 69.4229 95 66.4273 95 62.9172V62.5M95 62.5C96.933 62.5 98.5 60.933 98.5 59V58.5C98.5 56.567 96.933 55 95 55C93.067 55 91.5 56.567 91.5 58.5V59C91.5 60.933 93.067 62.5 95 62.5Z" stroke="#FF0B37" stroke-width="2"/>
<path d="M71 69C71 62.3726 65.6274 57 59 57C52.3726 57 47 62.3726 47 69C47 73.7558 49.7666 77.8655 53.7782 79.8074" stroke="#FF0B37" stroke-width="2"/>
<path d="M66 69C66 65.134 62.866 62 59 62C55.134 62 52 65.134 52 69C52 71.591 53.4077 73.8532 55.5 75.0635" stroke="#FF0B37" stroke-width="2"/>
<circle cx="70" cy="23" r="12" stroke="#FF0B37" stroke-width="2"/>
<circle cx="70" cy="23" r="7" stroke="#FF0B37" stroke-width="2"/>
<circle cx="113" cy="41" r="12" stroke="#FF0B37" stroke-width="2"/>
<circle cx="113" cy="41" r="7" stroke="#FF0B37" stroke-width="2"/>
<circle cx="115" cy="61" r="40" fill="#FF0B37"/>
<mask id="mask0_579_5462" style="mask-type:alpha" maskUnits="userSpaceOnUse" x="75" y="21" width="80" height="80">
<circle cx="115" cy="61" r="40" fill="#FF0B37"/>
</mask>
<g mask="url(#mask0_579_5462)">
<path d="M53 96.5L47.7963 113.712C46.0335 119.543 47.0528 125.395 49.9469 130.048M53 96.5C50.23 95.392 48.8683 92.2606 49.9469 89.4791L55.0243 76.3847C56.5166 72.5362 60.2201 70 64.3479 70H80M53 96.5C55.4384 97.5837 58.2855 96.3851 59.2146 93.8837L62.7895 84.2591C63.5172 82.2999 65.3866 81 67.4766 81H113.523C115.613 81 117.483 82.2999 118.21 84.2591L121.785 93.8837C122.714 96.3851 125.562 97.5837 128 96.5M80 70C83.4623 69.4229 86 66.4273 86 62.9172V62.5M80 70H101M86 62.5C84.067 62.5 82.5 60.933 82.5 59V58.5C82.5 56.567 84.067 55 86 55C87.933 55 89.5 56.567 89.5 58.5V59C89.5 60.933 87.933 62.5 86 62.5ZM128 96.5L133.204 113.712C135.089 119.948 133.792 126.209 130.423 131M128 96.5C130.77 95.392 132.132 92.2606 131.053 89.4791L125.976 76.3847C124.483 72.5362 120.78 70 116.652 70H101M101 70C97.5376 69.4229 95 66.4273 95 62.9172V62.5M95 62.5C96.933 62.5 98.5 60.933 98.5 59V58.5C98.5 56.567 96.933 55 95 55C93.067 55 91.5 56.567 91.5 58.5V59C91.5 60.933 93.067 62.5 95 62.5Z" stroke="white" stroke-width="2"/>
<circle cx="70" cy="23" r="12" stroke="white" stroke-width="2"/>
<circle cx="70" cy="23" r="7" stroke="white" stroke-width="2"/>
<circle cx="113" cy="41" r="12" stroke="white" stroke-width="2"/>
<circle cx="113" cy="41" r="7" stroke="white" stroke-width="2"/>
</g>
</svg>
