<svg width="180" height="180" viewBox="0 0 180 180" fill="none" xmlns="http://www.w3.org/2000/svg">
<path d="M92.4 70.5907V30.7C92.4 26.4474 88.9526 23 84.7 23V23M91.9333 47.81L90.0667 45.9376C89.0367 44.9044 87.3633 44.9044 86.3333 45.9376V45.9376C85.3033 46.9707 83.63 46.9707 82.6 45.9376V45.9376C81.57 44.9044 79.8967 44.9044 78.8667 45.9376L78.4044 46.4013C77.8868 46.9204 77 46.5539 77 45.8208V30.7C77 26.4474 80.4474 23 84.7 23V23M84.7 23H158C163.523 23 168 27.4772 168 33V121H128.314M105.265 49.8655H154.212M105.265 36.4664H154.212" stroke="#FF0B37" stroke-width="2"/>
<path d="M27.0392 111.266L26.328 112.22C25.0085 113.992 22.5025 114.359 20.7307 113.039L4.31347 100.812L40.9762 52.0112L57.3935 64.2381C59.1652 65.5577 59.5318 68.0637 58.2123 69.8354L57.5011 70.7903M27.0392 111.266L57.5011 70.7903M27.0392 111.266L35.3549 117.459M111.733 70.7903L94.9468 70.7903C94.3249 70.7903 93.7116 70.9353 93.1556 71.2138L67.0011 84.3123M111.733 70.7903L57.5011 70.7903M111.733 70.7903V70.7903C110.587 68.9219 111.2 66.4766 113.092 65.3696L132.587 53.9618L161.385 105.92L141.489 116.591C139.714 117.543 137.503 116.897 136.521 115.139V115.139M111.733 70.7903L136.521 115.139M136.521 115.139L126.001 120.494M78.5011 150L86.1886 155.48C89.0105 157.491 92.923 156.877 94.993 154.098V154.098C97.0939 151.277 96.5102 147.287 93.6893 145.186L89.2817 141.904L99.6891 149.655C102.481 151.734 106.43 151.156 108.509 148.364V148.364C110.588 145.573 110.01 141.624 107.219 139.545L96.8112 131.794L109.597 141.316C112.718 143.64 117.131 142.994 119.455 139.874V139.874C121.779 136.754 121.133 132.341 118.013 130.017L105.227 120.494C107.678 122.32 111.71 125.322 115.041 127.804C118.161 130.127 122.573 129.48 124.897 126.36V126.36C127.22 123.24 126.575 118.827 123.455 116.503L90.6011 92.0348C89.41 91.1477 87.8255 90.9936 86.4858 91.6344L66.5508 101.17C62.8774 102.928 58.4732 101.425 56.6399 97.7889V97.7889C54.7598 94.0602 56.2953 89.5143 60.0512 87.6893L67.0011 84.3123M67.0011 84.3123V84.3123C68.9106 88.2337 67.1728 92.9562 63.1769 94.7044L62.5011 95" stroke="#FF0B37" stroke-width="2"/>
<rect x="44.3572" y="110.157" width="13.3473" height="25.2116" rx="6.67366" transform="rotate(49.706 44.3572 110.157)" stroke="#FF0B37" stroke-width="2"/>
<rect x="74.7771" y="136.862" width="13.3473" height="20.7625" rx="6.67366" transform="rotate(49.706 74.7771 136.862)" stroke="#FF0B37" stroke-width="2"/>
<rect x="57.5134" y="116.501" width="13.3473" height="34.1098" rx="6.67366" transform="rotate(49.706 57.5134 116.501)" stroke="#FF0B37" stroke-width="2"/>
<rect x="68.4077" y="124.764" width="13.3473" height="29.6607" rx="6.67366" transform="rotate(49.706 68.4077 124.764)" stroke="#FF0B37" stroke-width="2"/>
<circle cx="61" cy="137" r="40" fill="#FF0B37"/>
<mask id="mask0_579_5503" style="mask-type:alpha" maskUnits="userSpaceOnUse" x="21" y="97" width="80" height="80">
<circle cx="61" cy="137" r="40" fill="#FF0B37"/>
</mask>
<g mask="url(#mask0_579_5503)">
<path d="M92.4 70.5907V30.7C92.4 26.4474 88.9526 23 84.7 23V23M91.9333 47.81L90.0667 45.9376C89.0367 44.9044 87.3633 44.9044 86.3333 45.9376V45.9376C85.3033 46.9707 83.63 46.9707 82.6 45.9376V45.9376C81.57 44.9044 79.8966 44.9044 78.8667 45.9376L78.4044 46.4013C77.8868 46.9204 77 46.5539 77 45.8208V30.7C77 26.4474 80.4474 23 84.7 23V23M84.7 23H158C163.523 23 168 27.4772 168 33V121H128.314M105.265 49.8655H154.212M105.265 36.4664H154.212" stroke="white" stroke-width="2"/>
<path d="M27.0392 111.266L26.328 112.22C25.0085 113.992 22.5025 114.359 20.7307 113.039L4.31346 100.812L40.9762 52.0112L57.3935 64.2381C59.1652 65.5577 59.5318 68.0637 58.2123 69.8354L57.5011 70.7903M27.0392 111.266L57.5011 70.7903M27.0392 111.266L35.3549 117.459M111.733 70.7903L94.9468 70.7903C94.3249 70.7903 93.7116 70.9353 93.1556 71.2138L67.0011 84.3123M111.733 70.7903L57.5011 70.7903M111.733 70.7903V70.7903C110.587 68.9219 111.2 66.4766 113.092 65.3696L132.587 53.9618L161.385 105.92L141.489 116.591C139.714 117.543 137.503 116.897 136.521 115.139V115.139M111.733 70.7903L136.521 115.139M136.521 115.139L126.001 120.494M78.5011 150L86.1886 155.48C89.0105 157.491 92.923 156.877 94.993 154.098V154.098C97.0939 151.277 96.5102 147.287 93.6893 145.186L89.2817 141.904L99.6891 149.655C102.481 151.734 106.43 151.156 108.509 148.364V148.364C110.588 145.573 110.01 141.624 107.219 139.545L96.8112 131.794L109.597 141.316C112.718 143.64 117.131 142.994 119.455 139.874V139.874C121.779 136.754 121.133 132.341 118.013 130.017L105.227 120.494C107.678 122.32 111.71 125.322 115.041 127.804C118.161 130.127 122.573 129.48 124.897 126.36V126.36C127.22 123.24 126.575 118.827 123.455 116.503L90.6011 92.0348C89.41 91.1477 87.8255 90.9936 86.4857 91.6344L66.5508 101.17C62.8774 102.928 58.4732 101.425 56.6399 97.7889V97.7889C54.7598 94.0602 56.2953 89.5143 60.0512 87.6893L67.0011 84.3123M67.0011 84.3123V84.3123C68.9106 88.2337 67.1728 92.9562 63.1769 94.7044L62.5011 95" stroke="white" stroke-width="2"/>
<rect x="44.3572" y="110.157" width="13.3473" height="25.2116" rx="6.67366" transform="rotate(49.706 44.3572 110.157)" stroke="white" stroke-width="2"/>
<rect x="74.7771" y="136.862" width="13.3473" height="20.7625" rx="6.67366" transform="rotate(49.706 74.7771 136.862)" stroke="white" stroke-width="2"/>
<rect x="57.5134" y="116.501" width="13.3473" height="34.1098" rx="6.67366" transform="rotate(49.706 57.5134 116.501)" stroke="white" stroke-width="2"/>
<rect x="68.4077" y="124.764" width="13.3473" height="29.6607" rx="6.67366" transform="rotate(49.706 68.4077 124.764)" stroke="white" stroke-width="2"/>
</g>
</svg>
